<svg id="Layer_2" height="512" viewBox="0 0 64 64" width="512" xmlns="http://www.w3.org/2000/svg" data-name="Layer 2"><path d="m47 27.8704s13 7 13 10-7 16-7 16a6.62035 6.62035 0 0 0 -.22674 4.20164.98889.98889 0 0 1 -.64716 1.164c-1.6221.54038-5.89944 1.50165-15.98688 1.62186a1.00231 1.00231 0 0 1 -.8093-1.6163c1.828-2.312 4.971-6.57478 5.67008-9.37124z" fill="#ccdde7"/><path d="m28 46.8704c-1.91893 3.2629-6.28705 9.86767-15.99987 11.00019-.00013-.00014-1.50171 1.50141-2.3802 2.37988a.99046.99046 0 0 1 -1.3586.04862c-1.36315-1.21032-4.14633-4.47478-4.25787-11.02086a.99977.99977 0 0 1 .25208-.68367c.80488-.90267 3.43173-4.0987 6.74446-10.72416 3.47511.517 11.37537 1.69548 14.77 2.21z" fill="#ccdde7"/><path d="m28 46.8704s-.16.32-.48.85l-6.59-1.16a2.00024 2.00024 0 0 1 -1.62-2.31l.88-5.01 5.58.84z" opacity=".1"/><path d="m53.65 9.70035c-1.54914 8.798-5.25733 29.86121-6.77 38.41a1.99908 1.99908 0 0 1 -2.32 1.62c-.42326-.074-22.301-3.93241-23.63-4.17a2.00028 2.00028 0 0 1 -1.62-2.31l.89-5.07c.18848-1.02337 1.26867-7.22007 1.48-8.38l4.4-24.96a1.99908 1.99908 0 0 1 2.32-1.62l23.63 4.16a2.0042 2.0042 0 0 1 1.62 2.32z" fill="#044388"/><path d="m20.252 11.729h33.425v24.001h-33.425z" fill="#168fd6" transform="matrix(-.174 .985 -.985 -.174 66.752 -8.552)"/><path d="m35.14 43.60372a1.73084 1.73084 0 0 1 -3.40873-.60113 1.73084 1.73084 0 0 1 3.40873.60113z" fill="#fff"/><rect height="4.5" opacity=".1" rx="1" transform="matrix(.985 .174 -.174 .985 4.626 -4.617)" width="4.5" x="26.452" y="21.881"/><rect height="4.5" opacity=".1" rx="1" transform="matrix(.985 .174 -.174 .985 4.852 -5.459)" width="4.5" x="31.376" y="22.75"/><rect height="4.5" opacity=".1" rx="1" transform="matrix(.985 .174 -.174 .985 5.078 -6.301)" width="4.5" x="36.3" y="23.618"/><rect height="4.5" opacity=".1" rx="1" transform="matrix(.985 .174 -.174 .985 5.303 -7.143)" width="4.5" x="41.224" y="24.486"/><rect height="4.5" opacity=".1" rx="1" transform="matrix(.985 .174 -.174 .985 5.468 -4.392)" width="4.5" x="25.584" y="26.805"/><rect height="4.5" opacity=".1" rx="1" transform="matrix(.985 .174 -.174 .985 6.31 -4.166)" width="4.5" x="24.715" y="31.729"/><rect height="9" opacity=".1" rx="1" transform="matrix(.174 -.985 .985 .174 -6.359 62.985)" width="4.5" x="32.102" y="30.782"/><rect height="4.5" opacity=".1" rx="1" transform="matrix(.985 .174 -.174 .985 6.987 -6.692)" width="4.5" x="39.488" y="34.334"/><rect fill="#044388" height="4.5" rx="1" transform="matrix(.985 .174 -.174 .985 5.642 -4.377)" width="4.5" x="25.584" y="27.805"/><rect height="4.5" opacity=".1" rx="1" transform="matrix(.985 .174 -.174 .985 5.694 -5.234)" width="4.5" x="30.508" y="27.674"/><rect height="4.5" opacity=".1" rx="1" transform="matrix(.985 .174 -.174 .985 5.919 -6.076)" width="4.5" x="35.432" y="28.542"/><rect height="4.5" opacity=".1" rx="1" transform="matrix(.985 .174 -.174 .985 6.145 -6.917)" width="4.5" x="40.356" y="29.41"/><g fill="#044388"><rect height="4.5" rx="1" transform="matrix(.985 .174 -.174 .985 5.868 -5.219)" width="4.5" x="30.508" y="28.674"/><rect height="4.5" rx="1" transform="matrix(.985 .174 -.174 .985 6.093 -6.06)" width="4.5" x="35.432" y="29.542"/><rect height="4.5" rx="1" transform="matrix(.985 .174 -.174 .985 6.319 -6.902)" width="4.5" x="40.356" y="30.41"/><rect height="4.5" rx="1" transform="matrix(.985 .174 -.174 .985 6.484 -4.151)" width="4.5" x="24.715" y="32.729"/></g><rect fill="#ccdde7" height="9" rx="1" transform="matrix(.174 -.985 .985 .174 -7.344 63.811)" width="4.5" x="32.102" y="31.782"/><rect fill="#044388" height="4.5" rx="1" transform="matrix(.985 .174 -.174 .985 7.161 -6.677)" width="4.5" x="39.488" y="35.334"/><rect fill="#ccdde7" height="4.5" rx="1" transform="matrix(.985 .174 -.174 .985 4.8 -4.602)" width="4.5" x="26.452" y="22.881"/><rect fill="#044388" height="4.5" rx="1" transform="matrix(.985 .174 -.174 .985 5.026 -5.444)" width="4.5" x="31.376" y="23.75"/><rect fill="#044388" height="4.5" rx="1" transform="matrix(.985 .174 -.174 .985 5.251 -6.286)" width="4.5" x="36.3" y="24.618"/><rect fill="#044388" height="4.5" rx="1" transform="matrix(.985 .174 -.174 .985 5.477 -7.128)" width="4.5" x="41.224" y="25.486"/><path d="m49.29 34.46036-2.41 13.65a1.99908 1.99908 0 0 1 -2.32 1.62l-2.68-.47-.88-.39c1-4-6-9 2-21 0 0 2-4 1-7s3-3 4 0a11.04167 11.04167 0 0 1 0 8s-1 3 1 5z" opacity=".1"/><path d="m20.2 38.18039a6.73817 6.73817 0 0 1 .15 7.18 1.98628 1.98628 0 0 1 -1.04-2.11z" opacity=".1"/><path d="m30.62 30.42038c-.67 1.55-2.52 3.81-7.62 4.45a5.99583 5.99583 0 0 0 -2.51 1.66l1.19-6.73 7.92-.79a1.00838 1.00838 0 0 1 1.02 1.41z" opacity=".1"/><path d="m41 49.8704c1-4-6-9 2-21 0 0 2-4 1-7s3-3 4 0a11.04167 11.04167 0 0 1 0 8s-1 3 1 5l3.6383 7.57446-6.76155 9.57447z" fill="#ccdde7"/><path d="m11 37.8704s4-6 10-7l8.60315-.86032a1.00325 1.00325 0 0 1 1.01438 1.40592c-.67133 1.55689-2.521 3.81734-7.61753 4.4544 0 0-3 1-3 3 0 0 3 4 0 8-6.1346.90306-9.6482-4.36284-9-9z" fill="#ccdde7"/></svg>