<svg id="Layer_2" height="512" viewBox="0 0 64 64" width="512" xmlns="http://www.w3.org/2000/svg" data-name="Layer 2"><path d="m58 32.03018c-.5448 29.01511-39.85191 35.93517-50.37 9.05973-6.46529-16.45928 6.58346-35.42314 24.37029-35.05938 14.12071-.18629 26.21495 11.97601 25.99971 25.99965z" fill="#168fd6"/><path d="m24 28.03018c-3 1-7-4-10 0-2.54 3.38-1.5 8.91-7.17 10.54a26.17206 26.17206 0 0 1 10.32-27.88 16.71723 16.71723 0 0 0 6.85 9.34c6 4 3 7 0 8z" fill="#044388"/><path d="m58 32.03018a25.97635 25.97635 0 0 1 -11.46 21.56l-1.54.44s0-6-5-8-1-17 1-17 2-2 5 4c2.76 5.52 7.22-3.9 11.81-4.15a25.13915 25.13915 0 0 1 .19 3.15z" fill="#044388"/><path d="m56.37 22.97019c-4.4901 3.39381-12.78589 4.02061-18.08 1.47981-.68086.743-1.94827 1.40762-4.307 1.55147a.50548.50548 0 0 1 -.4729-.75372 13.02451 13.02451 0 0 0 1.2899-2.91758c-5.819-4.58061-4.64212-12.29567 1.82-15.88a25.97478 25.97478 0 0 1 19.75 16.52002z" opacity=".1"/><path d="m34.80255 21.3317c-9.08035-7.68164-.59694-18.53108 11.19756-18.30132 8.28413-.0002 14.99989 4.92467 14.99989 10.9998.048 9.14566-14.11841 13.60055-22.70587 9.42469-.68081.74267-1.952 1.404-4.31251 1.54684a.50494.50494 0 0 1 -.47215-.753 13.12934 13.12934 0 0 0 1.29308-2.91701z" fill="#ccdde7"/><path d="m57 15.03018h-2a1.00018 1.00018 0 0 1 .00006-2h1.99994a1.00019 1.00019 0 0 1 0 2zm-6 0h-2a1.00018 1.00018 0 0 1 .00006-2h1.99994a1.00019 1.00019 0 0 1 0 2zm-6 0h-2a1.00018 1.00018 0 0 1 .00006-2h1.99994a1.00019 1.00019 0 0 1 0 2zm-6 0h-2a1.00018 1.00018 0 0 1 .00006-2h1.99994a1.00019 1.00019 0 0 1 0 2z" fill="#fff"/><path d="m33 49.03018c-.13 3.45-2.67 6.49-6.08 8.5a26.006 26.006 0 0 1 -19.29-16.44c4.49-3.39393 12.78592-4.02051 18.08-1.47986a9.24494 9.24494 0 0 0 4.64845-1.9902c1.85388-.80052.2663 4.11146-.35849 4.41006 1.29004 1.41999 3.11004 3.94001 3.00004 7z" opacity=".1"/><path d="m30 43.03018c8.04829 8.37025-1.61512 17.8819-12.00017 18-8.28407 0-14.99983-4.92486-14.99983-11-.04426-9.14888 14.11591-13.59908 22.706-9.42439a9.16309 9.16309 0 0 0 4.654-1.98752.49769.49769 0 0 1 .80964.34428 6.023 6.023 0 0 1 -1.16964 4.06763z" fill="#ccdde7"/><path d="m27 51.03018h-2a1.00018 1.00018 0 0 1 .00006-2h1.99994a1.00019 1.00019 0 0 1 0 2zm-6 0h-2a1.00018 1.00018 0 0 1 .00006-2h1.99994a1.00019 1.00019 0 0 1 0 2zm-6 0h-2a1.00018 1.00018 0 0 1 .00006-2h1.99994a1.00019 1.00019 0 0 1 0 2zm-6 0h-2a1.00018 1.00018 0 0 1 .00006-2h1.99994a1.00019 1.00019 0 0 1 0 2z" fill="#fff"/></svg>