<svg id="Layer_2" height="512" viewBox="0 0 64 64" width="512" xmlns="http://www.w3.org/2000/svg" data-name="Layer 2"><path d="m16.47968 58.37371a42.17684 42.17684 0 0 0 16.93732 2.51207 1.00412 1.00412 0 0 0 .8709-.687c1.93782-5.93016 7.444-19.33248 12.79956-21.3728l-23.92005-4.78c-.251-1.44436-.86212-4.80126-1.11-6.20995l-2.22-1.81a12.58261 12.58261 0 0 0 .30025 16.78c.25533 3.48793-.94128 10.18834-4.062 13.98108a.99687.99687 0 0 0 .40402 1.5866z" fill="#ccdde7"/><path d="m19.12746 50.736 16.97 4.55c2.34-5.85 6.45-14.52 10.99-16.46l-23.92005-4.78-.69995-3.92-3.12 11.63c.24.35.50994.7.79 1.05a26.37229 26.37229 0 0 1 -1.01 7.93z" opacity=".1"/><path d="m56.035 12.011c-3.6991 13.795-7.694 28.699-11.39 42.5a1.98829 1.98829 0 0 1 -2.44993 1.41l-23.18-6.21a1.98836 1.98836 0 0 1 -1.41-2.45l1.46-5.43c2.74978-10.23261 5.486-20.51909 8.47-31.60006.46943-1.79177 1.04511-3.8771 1.46-5.47a1.98844 1.98844 0 0 1 2.45-1.41l23.18 6.21a2.00063 2.00063 0 0 1 1.40993 2.45006z" fill="#044388"/><path d="m17.847 15.311h39.194v24h-39.194z" fill="#168fd6" transform="matrix(-.259 .966 -.966 -.259 73.516 -1.788)"/><path d="m29.71387 48.43257a2.0002 2.0002 0 0 0 3.86372 1.03519 2.0002 2.0002 0 0 0 -3.86372-1.03519z" fill="#fff"/><path d="m48.08749 24.826c.02069 1.44167 2.39175 2.49715 3.76 2.82l1.55-5.8c-1.7696-.14957-5.27249 1.25808-5.31 2.98z" opacity=".1"/><path d="m46.08749 30.826c.00678 1.69269 2.45685 3.07426 4.1 2.99l1.49-5.54c-1.89664-1.25514-5.50927.40011-5.59 2.55z" opacity=".1"/><path d="m45.08749 36.826c.004 1.57 2.05559 2.766 3.51 2.96l1.54-5.75995c-1.88481-.74998-4.99797.83972-5.05 2.79995z" opacity=".1"/><path d="m45.08749 42.326a2.51186 2.51186 0 0 0 2.16 2.48l1.28-4.79a2.50587 2.50587 0 0 0 -3.44 2.31z" opacity=".1"/><g fill="#ccdde7"><path d="m48.08749 23.826c0 1.65685 3.34314 3 5 3a3 3 0 0 0 0-6c-1.65686 0-5 1.34315-5 3z"/><path d="m46.08749 29.826c0 1.65685 2.34314 3 4 3a3 3 0 1 0 0-6c-1.65686 0-4 1.34315-4 3z"/><path d="m45.08749 35.826c0 1.65685 2.34314 3 4 3a3 3 0 0 0 0-6c-1.65686 0-4 1.34315-4 3z"/><path d="m45.08749 41.326a2.50015 2.50015 0 0 0 5-.00008 2.50015 2.50015 0 0 0 -5 .00008z"/></g><path d="m22.76748 28.006c1.56-1.83 4.97-6.58 3.02-11.27z" opacity=".1"/><path d="m19.8959 25.95754a25.54732 25.54732 0 0 0 .72772-11.20636 2.00073 2.00073 0 0 1 3.432-1.63849c6.20227 6.67108-2.0094 14.68225-2.0094 14.68225.00769.04291-2.2135-1.76911-2.2135-1.76911.03852-.04235.06318-.06829.06318-.06829z" fill="#ccdde7"/><path d="m34.96193 23.11305a2.001 2.001 0 1 0 3.79987-1.25389l-.83271-2.77053a1 1 0 0 1 .66983-1.24552l4.26493-1.28191a1 1 0 0 1 1.27929 1.08818l-2.37028 18.00762a1 1 0 0 1 -1.74665.525l-11.90563-13.71673a1 1 0 0 1 .46736-1.61317l4.26492-1.28191a1 1 0 0 1 1.24553.66983z" opacity=".1"/><g opacity=".1"><path d="m35.855 16.29093a1.01937 1.01937 0 1 0 -1.86.79008 1.01709 1.01709 0 1 0 1.86-.79008zm-2.64-3.61c-.76079-.69133-1.699-2.508-2.85-1.49005-.94889 1.12626.78427 1.96782 1.3399 2.81007a1.00314 1.00314 0 0 0 1.5101-1.32001zm-4.65-4.16c-.16-.11-.32-.22-.49-.33q-.25508.97494-.54 2.04a1.00107 1.00107 0 0 0 1.03-1.70993z"/></g><path d="m34.96193 22.11305a2.001 2.001 0 1 0 3.79987-1.25389l-.83271-2.77053a1 1 0 0 1 .66983-1.24552l4.26493-1.28191a1 1 0 0 1 1.27929 1.08818l-2.37028 18.00762a1 1 0 0 1 -1.74665.525l-11.90563-13.71673a1 1 0 0 1 .46736-1.61317l4.26492-1.28191a1 1 0 0 1 1.24553.66983z" fill="#fff"/><path d="m35.00074 16.80966c-.98026.00688-1.634-1.5545-.69236-2.1074 1.48556-.83902 2.51974 1.99646.69236 2.1074zm-2.54151-3.47066c-.93212-.08737-1.36667-1.21786-2.07333-1.73572a1.00037 1.00037 0 0 1 -.01846-1.41418c1.14688-1.00858 2.09314.80159 2.84474 1.49211a1.00675 1.00675 0 0 1 -.75295 1.65779zm-4.46093-3.99271c-.61959-.03209-1.05827-.58558-1.607-.8559-.66716-.31278-1.411-.91008-.94912-1.70911.8553-1.26614 2.23971.264 3.1264.74267a1.00631 1.00631 0 0 1 -.57028 1.82234zm-5.30811-2.75729c-.73536-.12118-1.433-.48651-2.17092-.64837a1.00021 1.00021 0 0 1 -.69675-1.231c.51821-1.43553 2.22713-.3032 3.21238-.05965a1.00345 1.00345 0 0 1 -.34471 1.93902zm-13.7959-1.07328a1.00191 1.00191 0 0 1 -.18549-1.98243c1.00639-.07842 2.87353-.92119 3.15819.57662.04782 1.51471-1.98324 1.1012-2.9727 1.40581zm7.96924-.29346c-.99152-.24306-2.94235.3184-2.99516-1.18548.15514-1.51269 2.10161-.81016 3.106-.80823a1.00127 1.00127 0 0 1 -.11084 1.99371z" fill="#ccdde7"/></svg>