<svg id="Layer_2" height="512" viewBox="0 0 64 64" width="512" xmlns="http://www.w3.org/2000/svg" data-name="Layer 2"><path d="m53.11776 41.4697c-.01212 15.45837-23.63855 22.84223-38.1801 15.84957-1.20992 1.32042-3.51992 2.48039-7.92989 2.63042a.49714.49714 0 0 1 -.45-.76 22.37484 22.37484 0 0 0 2.51-5.44c-18.74366-16.99716 6.81708-35.82788 27.34014-29.69934 9.61442 2.65352 16.50929 8.86108 16.70985 17.41935z" fill="#168fd6"/><path d="m46.3948 42.4697h-2a1.00018 1.00018 0 0 1 .00006-2h1.99994a1.00019 1.00019 0 0 1 0 2zm-6 0h-2a1.00018 1.00018 0 0 1 .00006-2h1.99994a1.00019 1.00019 0 0 1 0 2zm-6 0h-2a1.00018 1.00018 0 0 1 .00006-2h1.99994a1.00019 1.00019 0 0 1 0 2zm-6 0h-2a1.00018 1.00018 0 0 1 .00006-2h1.99994a1.00019 1.00019 0 0 1 0 2zm-6 0h-2a1.00018 1.00018 0 0 1 .00006-2h1.99994a1.00019 1.00019 0 0 1 0 2zm-6 0h-2a1.00018 1.00018 0 0 1 .00006-2h1.99994a1.00019 1.00019 0 0 1 0 2zm-6 0h-1a1.00018 1.00018 0 0 1 .00006-2h.99994a1.00019 1.00019 0 0 1 0 2z" fill="#fff"/><g fill="#ccdde7"><path d="m51.66774 8.9697a1.00005 1.00005 0 0 1 -1-1v-2a1 1 0 1 1 2 0v2a1 1 0 0 1 -1 1z"/><path d="m55.20339 10.43406a1.00662 1.00662 0 0 1 -.707-1.707l1.414-1.414a1.00008 1.00008 0 0 1 1.414 1.4141c-.54565.45814-1.50972 1.79676-2.121 1.7069z"/><path d="m58.66774 13.9697h-2a1.00018 1.00018 0 0 1 .00007-2h1.99993a1.00019 1.00019 0 0 1 0 2z"/><path d="m46.80776 12.49967-5.76 1.54c-.40124-1.50155-1.26939-4.76737-1.68-6.29006-.94793-3.66686 4.74232-5.19892 5.75-1.53986.40243 1.52999 1.28155 4.78479 1.69 6.28992z"/></g><path d="m52.73775 38.2797a3.82806 3.82806 0 0 1 -6.31-1.75l-6.23 1.67a2.98133 2.98133 0 0 1 -1.54-5.76l-2.25-8.39c8.42003 2.20998 14.77 7.62002 16.33 14.23z" opacity=".1"/><path d="m53.89779 34.54966a3.80522 3.80522 0 0 1 -7.61-.00009c.12838-5.04175 7.48846-5.00816 7.61.00009z" fill="#ccdde7"/><path d="m46.80776 12.49967-5.76 1.54-.7-2.63a10.0894 10.0894 0 0 1 5.75-1.53z" opacity=".1"/><path d="m53.87777 34.15971-7.25 1.95c-2.10757-5.48312 6.31993-7.73542 7.25-1.95z" opacity=".1"/><path d="m57.57853 26.3664-2.31489-8.6393a9.79588 9.79588 0 0 0 -18.92419 5.07072l2.3149 8.6393a2.98154 2.98154 0 0 0 1.54335 5.75951l18.92409-5.0707a2.98154 2.98154 0 0 0 -1.54326-5.75953z" fill="#044388"/><path d="m18.96715 26.79746a7 7 0 0 1 -7 7c-9.26628-.32009-9.26392-13.68129.00011-14a7 7 0 0 1 6.99989 7z" fill="#ccdde7"/></svg>