<svg xmlns="http://www.w3.org/2000/svg" xmlns:xlink="http://www.w3.org/1999/xlink" width="184" height="62" viewBox="0 0 184 62">
  <defs>
    <clipPath id="clip-path">
      <rect id="長方形_3353" data-name="長方形 3353" width="184" height="62" fill="#037EF2"/>
    </clipPath>
  </defs>
  <g id="グループ_13145" data-name="グループ 13145" transform="translate(0 0)">
    <path id="パス_12223" data-name="パス 12223" d="M17.3,17.955h.173L21.8,40.045H12.976ZM13.755.4,0,61.363H8.823l2.6-13.1H23.444l2.6,13.1h8.824L21.108.4Z" transform="translate(0 0.117)" fill="#037EF2"/>
    <rect id="長方形_3352" data-name="長方形 3352" width="8.824" height="60.961" transform="translate(39.448 0.52)" fill="#037EF2"/>
    <path id="パス_12224" data-name="パス 12224" d="M44.019.4V61.363h26.3V52.631H52.843V34.736H68.068V26.517H52.843V8.621H70.317V.4Z" transform="translate(12.817 0.117)" fill="#037EF2"/>
    <g id="グループ_13144" data-name="グループ 13144" transform="translate(0 0)">
      <g id="グループ_13143" data-name="グループ 13143" clip-path="url(#clip-path)">
        <path id="パス_12225" data-name="パス 12225" d="M97.747,18.07H88.922V16.1A9.269,9.269,0,0,0,87.5,10.919q-1.427-2.182-4.8-2.184a5.617,5.617,0,0,0-2.941.685,5.8,5.8,0,0,0-1.815,1.713,7.148,7.148,0,0,0-.952,2.527,16.218,16.218,0,0,0-.261,2.954,28.641,28.641,0,0,0,.13,3,5.6,5.6,0,0,0,.649,2.141,4.731,4.731,0,0,0,1.512,1.626,13.81,13.81,0,0,0,2.726,1.371L88.489,27.4a16.8,16.8,0,0,1,4.759,2.612A11.344,11.344,0,0,1,96.1,33.484a16.163,16.163,0,0,1,1.3,4.666,45.878,45.878,0,0,1,.347,5.952,31.065,31.065,0,0,1-.78,7.15,14.987,14.987,0,0,1-2.509,5.61A12.421,12.421,0,0,1,89.7,60.63,16.952,16.952,0,0,1,82.522,62a15.862,15.862,0,0,1-5.969-1.113A14.178,14.178,0,0,1,71.793,57.8a14.994,14.994,0,0,1-3.158-4.582,13.827,13.827,0,0,1-1.167-5.694V44.274h8.824v2.74a7.087,7.087,0,0,0,1.428,4.324q1.429,1.927,4.8,1.927a7.817,7.817,0,0,0,3.5-.643,4.639,4.639,0,0,0,1.946-1.84,6.694,6.694,0,0,0,.821-2.868q.13-1.67.13-3.726a37.051,37.051,0,0,0-.172-3.939,6.74,6.74,0,0,0-.693-2.483,4.839,4.839,0,0,0-1.6-1.541,20.957,20.957,0,0,0-2.637-1.285L77.5,32.369q-5.71-2.312-7.657-6.122A20.858,20.858,0,0,1,67.9,16.7a21.955,21.955,0,0,1,.952-6.508,14.772,14.772,0,0,1,2.856-5.309,13.068,13.068,0,0,1,4.628-3.554A15.583,15.583,0,0,1,83.039,0a14.78,14.78,0,0,1,6.013,1.2,15.568,15.568,0,0,1,4.715,3.167,13.177,13.177,0,0,1,3.979,9.42Z" transform="translate(19.644 0)" fill="#037EF2"/>
        <path id="パス_12226" data-name="パス 12226" d="M96.01,61.374V.4h26.3V8.623H104.834v17.9h15.225v8.221H104.834v17.9h17.475v8.735Z" transform="translate(27.955 0.112)" fill="#037EF2"/>
        <path id="パス_12227" data-name="パス 12227" d="M148.944,44.1v3.767a13.46,13.46,0,0,1-1.081,5.353,14.818,14.818,0,0,1-2.984,4.5,14.387,14.387,0,0,1-4.456,3.126A13.163,13.163,0,0,1,134.93,62a20.012,20.012,0,0,1-5.1-.685,12.127,12.127,0,0,1-4.671-2.4,13.267,13.267,0,0,1-3.418-4.411,15.462,15.462,0,0,1-1.34-6.893V14.044a14.717,14.717,0,0,1,1.038-5.565,13.056,13.056,0,0,1,2.941-4.453,13.693,13.693,0,0,1,4.541-2.955A15.4,15.4,0,0,1,134.758,0,13.454,13.454,0,0,1,144.88,4.026a14.335,14.335,0,0,1,2.984,4.666,15.631,15.631,0,0,1,1.081,5.867v3.424h-8.824V15.072a7.02,7.02,0,0,0-1.471-4.452,4.782,4.782,0,0,0-3.979-1.885q-3.289,0-4.368,2.013a10.684,10.684,0,0,0-1.081,5.1V47.013a8.014,8.014,0,0,0,1.167,4.454q1.168,1.8,4.195,1.8a6.491,6.491,0,0,0,1.861-.3,5.62,5.62,0,0,0,1.861-.985,5.251,5.251,0,0,0,1.3-1.885,7.585,7.585,0,0,0,.518-3v-3Z" transform="translate(35.056 0)" fill="#037EF2"/>
      </g>
    </g>
  </g>
</svg>
