<svg xmlns="http://www.w3.org/2000/svg" width="22.54" height="25.374" viewBox="0 0 22.54 25.374"><path d="M125.123,114.6v-1.941A1.911,1.911,0,0,1,125.2,112a1.289,1.289,0,0,1,2.438,0,1.907,1.907,0,0,1,.073.653v2.993a2.468,2.468,0,0,1-.036.526,1.327,1.327,0,0,1-.964.961,2.5,2.5,0,0,1-.528.036h-3a1.924,1.924,0,0,1-.655-.073,1.282,1.282,0,0,1,0-2.43,1.924,1.924,0,0,1,.655-.073Zm10.7,13.567h-16.1V114.026a.629.629,0,0,1,.191-.463l4.175-4.163a.633.633,0,0,1,.464-.19h11.27Zm1.828-22.146a3.421,3.421,0,0,0-.4-.018H124.122c-.145,0-.291.009-.391.018a2.539,2.539,0,0,0-1.565.762l-4.885,4.87a2.526,2.526,0,0,0-.764,1.56c-.009.1-.018.245-.018.39v15.988a3.34,3.34,0,0,0,.018.4,1.618,1.618,0,0,0,1.373,1.369,3.37,3.37,0,0,0,.4.018h18.956a3.369,3.369,0,0,0,.4-.018,1.618,1.618,0,0,0,1.373-1.369,3.416,3.416,0,0,0,.018-.4v-21.8a3.416,3.416,0,0,0-.018-.4A1.618,1.618,0,0,0,137.648,106.018Z" transform="translate(-116.5 -106)" fill="#41c9b4" fill-rule="evenodd"/></svg>