<svg xmlns="http://www.w3.org/2000/svg" width="27.052" height="21.996" viewBox="0 0 27.052 21.996"><path d="M98.188,136.5a15.694,15.694,0,0,0,15.8-15.8c0-.242,0-.484-.012-.714a11.376,11.376,0,0,0,2.775-2.879,11.27,11.27,0,0,1-3.19.875A5.55,5.55,0,0,0,116,114.9a11.245,11.245,0,0,1-3.524,1.347,5.556,5.556,0,0,0-9.6,3.8,5.09,5.09,0,0,0,.15,1.267,15.754,15.754,0,0,1-11.447-5.8,5.551,5.551,0,0,0,1.727,7.405,5.455,5.455,0,0,1-2.511-.691v.069a5.559,5.559,0,0,0,4.457,5.447,5.536,5.536,0,0,1-1.463.2,5.3,5.3,0,0,1-1.048-.1,5.545,5.545,0,0,0,5.182,3.858,11.163,11.163,0,0,1-6.9,2.372,10.1,10.1,0,0,1-1.324-.081,15.472,15.472,0,0,0,8.488,2.511" transform="translate(-89.7 -114.5)" fill="#1da1f2"/></svg>