<svg xmlns="http://www.w3.org/2000/svg" width="16" height="16" viewBox="0 0 16 16"><g><g><path fill="#fff" d="M19.968,15.25a.615.615,0,0,1,.084,1.225l-.084.006H17.1a.616.616,0,0,0-.61.532l-.006.084V29.4a.616.616,0,0,0,.532.61l.084.006H29.4a.616.616,0,0,0,.61-.532l.006-.084V26.532a.615.615,0,0,1,1.225-.084l.006.084V29.4a1.846,1.846,0,0,1-1.72,1.842l-.126,0H17.1a1.846,1.846,0,0,1-1.842-1.72l0-.126V17.1a1.846,1.846,0,0,1,1.72-1.842l.126,0Zm4.019.006.084-.006h6.564l.057,0h0l.084.014h0l.056.016h0l.048.019h0l.058.029h0l.068.044h0l.066.057h0a.614.614,0,0,1,.079.1l.041.073h0l.014.031h0l.019.054h0a.605.605,0,0,1,.021.1l.006.084v6.564a.615.615,0,0,1-1.225.084l-.006-.084V17.351l-7.155,7.155a.615.615,0,0,1-.93-.8l.06-.069,7.154-7.155H24.071a.616.616,0,0,1-.61-.532l-.006-.084A.616.616,0,0,1,23.987,15.256Z" transform="translate(-2.25 -2.25) translate(2.25 2.25) translate(-15.25 -15.25)"/></g></g></svg>