<?xml version="1.0"?>
<svg xmlns="http://www.w3.org/2000/svg" xmlns:xlink="http://www.w3.org/1999/xlink" xmlns:svgjs="http://svgjs.com/svgjs" version="1.1" width="512" height="512" x="0" y="0" viewBox="0 0 512 512" style="enable-background:new 0 0 512 512" xml:space="preserve" class=""><g>
<g xmlns="http://www.w3.org/2000/svg">
	<g>
		<path d="M494.596,163.035c-0.103-0.264-0.221-0.516-0.35-0.762c-11.061-28.121-27.104-54.29-47.665-77.199    c-2.766-3.083-7.506-3.341-10.591-0.572c-3.082,2.766-3.339,7.508-0.572,10.59c39.713,44.249,61.584,101.394,61.584,160.907    c0,1.766-0.027,3.528-0.064,5.288c-0.013,0.62-0.032,1.239-0.05,1.859c-0.032,1.11-0.075,2.219-0.122,3.326    c-0.034,0.783-0.064,1.567-0.105,2.349c-0.034,0.648-0.079,1.293-0.118,1.94c-2.517,41.177-15.517,80.816-37.637,115.291    c4.844-19.651,9.796-42.795,12.889-65.488c6.535-47.946,2.665-77.849-11.829-91.419c-11.812-11.059-28.148-1.5-41.276,6.179    c-5.277,3.087-14.115,8.249-16.942,7.795c-2.413-0.622-11.404-8.458-22.409-27.684c-9.805-17.13-16.239-34.966-16.791-46.547    c-1.24-26.036,19.184-56.995,19.388-57.3c1.704-2.548,1.677-5.89-0.055-8.42c-2.551-3.724-8.796-15.155-7.099-23.216    c0.787-3.736,2.293-10.909-23.195-45.237c9.809,4.235,19.35,9.13,28.553,14.671c0.063,0.038,0.128,0.067,0.191,0.102    c10.851,6.553,21.22,13.984,31.048,22.281c3.164,2.674,7.896,2.272,10.568-0.892c2.672-3.165,2.272-7.896-0.893-10.568    c-26.391-22.282-56.423-38.734-89.26-48.898c-0.128-0.04-0.259-0.054-0.387-0.086C307.12,3.857,281.711,0,256,0    c-2.631,0-5.253,0.053-7.87,0.132c-0.285,0.009-0.569,0.022-0.854,0.031c-2.174,0.072-4.342,0.172-6.506,0.298    c-0.207,0.012-0.414,0.025-0.621,0.038C177.734,4.287,119.578,30.384,74.982,74.981C26.63,123.333,0,187.62,0,256    c0,60.334,21.392,118.92,60.234,164.968c1.483,1.759,3.602,2.664,5.736,2.664c1.707,0,3.425-0.58,4.832-1.767    c3.166-2.671,3.567-7.402,0.896-10.568C35.135,367.951,15,312.799,15,256c0-12.143,0.894-24.148,2.647-35.941    c0.018,0.081,0.034,0.162,0.052,0.242c0.178,0.794,0.365,1.598,0.561,2.418c10.024,41.755,67.145,68.464,94.596,81.3    c2.211,1.034,4.566,2.135,6.525,3.085c-2.699,6.892-6.697,18.842-8.151,32.196c-3.134,28.793,6.937,49.875,29.123,60.968    c43.768,21.884,42.288,33.515,37.891,68.043c-0.697,5.482-1.176,10.551-1.457,15.319c-29.863-10.385-57.624-26.631-81.598-48.124    c-3.086-2.764-7.826-2.504-10.591,0.578c-2.764,3.084-2.506,7.825,0.578,10.59c28.041,25.138,60.953,43.531,96.359,54.282    c0.097,0.034,0.186,0.082,0.286,0.112c3.246,0.981,6.522,1.877,9.81,2.728c0.317,0.082,0.634,0.166,0.952,0.247    c1.522,0.388,3.048,0.761,4.578,1.121c0.528,0.124,1.056,0.245,1.584,0.366c1.399,0.32,2.799,0.632,4.204,0.928    c0.7,0.148,1.403,0.287,2.105,0.429c1.279,0.258,2.558,0.518,3.841,0.756c0.96,0.179,1.923,0.341,2.885,0.509    c1.053,0.184,2.104,0.377,3.159,0.548c2.023,0.328,4.051,0.63,6.084,0.909c0.501,0.069,1.004,0.125,1.505,0.191    c1.649,0.217,3.3,0.423,4.955,0.607c0.541,0.06,1.082,0.111,1.623,0.168c1.657,0.174,3.316,0.335,4.979,0.478    c0.19,0.016,0.38,0.039,0.571,0.055c0.075,0.006,0.15,0.005,0.225,0.009C241.881,511.693,248.924,512,256,512    c68.38,0,132.667-26.629,181.019-74.981c44.147-44.148,70.172-101.582,74.366-163.285c0.019-0.272,0.032-0.544,0.05-0.816    c0.106-1.639,0.206-3.28,0.281-4.924c0.038-0.824,0.06-1.65,0.091-2.474c0.041-1.147,0.091-2.292,0.118-3.441    c0.048-2.023,0.074-4.05,0.074-6.078C512,223.931,506.145,192.654,494.596,163.035z M181.886,26.568    c-3.286,5.297-6.611,10.51-9.742,14.559c-4.111,5.316-6.33,6.595-7.038,6.891c-3.067-1.573-7.288-5.444-10.901-10.591    C163.195,33.233,172.437,29.609,181.886,26.568z M242.354,489.574c-3.202,2.187-6.264,4.278-9.181,6.343    c-0.382-0.036-0.762-0.08-1.144-0.118c-1.329-0.131-2.658-0.266-3.984-0.419c-1.277-0.148-2.55-0.315-3.823-0.484    c-0.467-0.062-0.936-0.114-1.402-0.179c-10.579-1.465-21.012-3.634-31.242-6.468c0.193-5.467,0.704-11.422,1.547-18.044    c5.006-39.326,5.065-57.789-46.062-83.353c-16.227-8.114-23.277-23.455-20.955-45.597c1.882-17.947,9.337-33.635,9.408-33.784    c0.186-0.383,0.337-0.782,0.455-1.191c1.862-6.486-4.346-9.75-6.996-11.144c-2.374-1.248-5.635-2.773-9.764-4.704    c-23.349-10.918-78.027-36.485-86.363-71.208c-0.178-0.746-0.35-1.481-0.514-2.212c-5.371-23.871-2.071-49.162,9.288-71.216    c21.984-42.674,57.015-78.482,99.13-101.494c5.155,7.88,12.007,14.505,18.36,17.477c7.15,3.342,14.696,0.504,22.427-8.443    c5.148-5.958,10.29-14.301,15.262-22.369c2.107-3.417,4.27-6.927,6.373-10.148c15.292-3.419,30.982-5.343,46.755-5.736    c2.557,10.357,1.089,26.429-10.576,43.602c-1.533,2.257-12.448,3.35-17.109,3.816c-8.805,0.882-16.409,1.643-20.87,6.105    c-5.044,5.043-3.728,11.07-3.022,14.308c0.803,3.678,1.135,5.2-6.025,9.236c-20.001,11.274-29.29,28.595-34.279,37.901    l-0.639,1.187c-0.508,0.942-4.272,2.028-6.763,2.745c-7.311,2.107-18.359,5.292-22.148,18.754    c-1.081,3.842-1.969,7.869-2.827,11.764c-1.454,6.6-4.076,18.497-7.235,20.191c-0.559-1.382-1.15-3.924-1.57-5.728    c-1.706-7.322-4.283-18.388-15.141-23.982c-6.495-3.346-12.699-4.064-18.447-2.137c-9.808,3.291-15.329,13.357-19.734,22.533    c-6.797,14.16-0.137,23.833,5.214,31.605c5.412,7.859,10.523,15.281,7.715,29.905c-1.326,6.907,3.209,14.164,13.864,22.188    c9.863,7.428,24.465,14.991,38.105,19.738c11.748,4.089,27.868,7.888,37.953,2.771c14.21-7.211,27.849-7.054,42.924,0.496    c13.918,6.971,26.983,19.343,38.51,30.259c14.995,14.2,27.946,26.464,41.594,26.781c28.254,0.657,58.675,22.912,60.192,29.358    c2.418,16.765-18.014,33.314-36.042,47.915c-14.97,12.125-29.111,23.579-32.591,36.454    C277.554,465.531,258.036,478.862,242.354,489.574z M434.924,417.462c-2.753,3.043-5.588,6.03-8.51,8.952    c-45.032,45.032-104.749,70.032-168.351,70.562c16.542-11.509,33.15-24.494,37.398-40.213    c2.213-8.188,15.094-18.622,27.552-28.711c21.131-17.114,45.081-36.513,41.446-61.711c-1.703-11.809-19.413-23.112-26.949-27.423    c-15.837-9.061-33.238-14.451-47.738-14.789c0,0,0,0-0.001,0c-7.876-0.183-19.951-11.619-31.629-22.677    c-24.155-22.874-57.236-54.2-98.536-33.239c-4.441,2.254-18.386,0.368-36.446-7.598c-19.974-8.811-30.475-18.246-31.842-21.516    c3.714-20.405-4.323-32.075-10.207-40.619c-5.262-7.642-6.935-10.591-4.046-16.609c2.223-4.632,6.362-13.254,10.983-14.804    c0.656-0.22,2.65-0.89,6.806,1.251c4.366,2.249,5.765,7.023,7.402,14.05c1.565,6.724,4.169,17.985,16.135,17.516    c14.968-0.581,18.664-17.354,21.925-32.153c0.813-3.688,1.653-7.501,2.618-10.929c1.389-4.935,4.518-6.288,11.863-8.404    c5.485-1.581,12.311-3.549,15.811-10.038l0.654-1.219c4.571-8.523,12.22-22.788,28.426-31.923    c6.964-3.925,11.247-8.303,13.091-13.382c1.791-4.933,0.848-9.256,0.224-12.117c-0.049-0.225-0.104-0.477-0.156-0.726    c2.475-0.724,7.42-1.219,10.889-1.566c10.57-1.059,22.551-2.258,28.022-10.313c11.317-16.661,16.138-35.934,13.494-51.931    c20.414,0.78,40.554,4.133,59.949,9.933c32.049,40.101,34.632,50.499,34.827,52.121c-2.261,11.555,3.269,23.771,6.854,30.148    c-6.072,10.155-20.512,37.133-19.317,62.218c0.678,14.245,7.856,34.454,19.2,54.059c16.107,27.836,27.294,33.409,32.529,34.255    c8.225,1.328,17.325-4.003,26.967-9.644c8.361-4.889,19.815-11.586,23.452-8.176c13.82,12.938,10.454,54.702,7.219,78.445    C451.572,357.872,440.094,399.733,434.924,417.462z" fill="#0cb9c1" data-original="#000000" style="" class=""/>
	</g>
</g>
<g xmlns="http://www.w3.org/2000/svg">
</g>
<g xmlns="http://www.w3.org/2000/svg">
</g>
<g xmlns="http://www.w3.org/2000/svg">
</g>
<g xmlns="http://www.w3.org/2000/svg">
</g>
<g xmlns="http://www.w3.org/2000/svg">
</g>
<g xmlns="http://www.w3.org/2000/svg">
</g>
<g xmlns="http://www.w3.org/2000/svg">
</g>
<g xmlns="http://www.w3.org/2000/svg">
</g>
<g xmlns="http://www.w3.org/2000/svg">
</g>
<g xmlns="http://www.w3.org/2000/svg">
</g>
<g xmlns="http://www.w3.org/2000/svg">
</g>
<g xmlns="http://www.w3.org/2000/svg">
</g>
<g xmlns="http://www.w3.org/2000/svg">
</g>
<g xmlns="http://www.w3.org/2000/svg">
</g>
<g xmlns="http://www.w3.org/2000/svg">
</g>
</g></svg>
