<svg xmlns="http://www.w3.org/2000/svg" xmlns:svgjs="http://svgjs.com/svgjs" xmlns:xlink="http://www.w3.org/1999/xlink" style="enable-background:new 0 0 512 512" width="512" height="512" x="0" y="0" version="1.1" viewBox="0 0 74 74" xml:space="preserve"><g><path xmlns="http://www.w3.org/2000/svg" fill="#037ef3" d="m19 25.86a1 1 0 0 1 -.035-2 100.408 100.408 0 0 0 14.649-1.24.961.961 0 0 1 .262-.018 7.184 7.184 0 0 1 3.425 1.08 1 1 0 0 1 -.581 1.809 1.029 1.029 0 0 1 -.647-.229 4.99 4.99 0 0 0 -2.205-.653 103.883 103.883 0 0 1 -14.842 1.251z" data-original="#000000"/><path xmlns="http://www.w3.org/2000/svg" fill="#037ef3" d="m55.58 49.65a4.032 4.032 0 0 1 -2.375-.77l-.215-.149c-.028-.019-.075-.057-.119-.1l-11.771-8.477a1 1 0 1 1 1.161-1.628l.8.57 11.015 7.943a.943.943 0 0 1 .094.077l.191.133a2.083 2.083 0 0 0 2.841-.393 2.051 2.051 0 0 0 .359-1.856 2.006 2.006 0 0 0 -.665-1.011l-15.744-12.827c-6.029 3.2-10.3 1.554-12.339.251a2.3 2.3 0 0 1 .195-3.969l9.012-4.786a4.919 4.919 0 0 1 3.768-.33l5.331 1.73a6.932 6.932 0 0 0 4.8-.173l2.322-.951a1 1 0 1 1 .759 1.851l-2.32.95a8.916 8.916 0 0 1 -6.182.224l-5.326-1.729a2.9 2.9 0 0 0 -2.219.2l-9.014 4.787a.3.3 0 0 0 -.172.263.274.274 0 0 0 .128.255c2.1 1.342 5.705 2.326 10.866-.639a1 1 0 0 1 1.13.092l16.26 13.25a3.987 3.987 0 0 1 1.328 2 4.083 4.083 0 0 1 -.7 3.645 4.032 4.032 0 0 1 -3.199 1.567z" data-original="#000000"/><path xmlns="http://www.w3.org/2000/svg" fill="#037ef3" d="m51.442 54.285a4.077 4.077 0 0 1 -2.365-.753l-10.81-7.67a1 1 0 0 1 1.157-1.631l10.81 7.669a2.1 2.1 0 0 0 2.44-3.414l-10.774-7.765a1 1 0 0 1 1.166-1.621l10.777 7.766a4.1 4.1 0 0 1 -2.4 7.421z" data-original="#000000"/><path xmlns="http://www.w3.org/2000/svg" fill="#037ef3" d="m46.775 58.292a3.941 3.941 0 0 1 -2.251-.707l-9.687-6.71a1 1 0 0 1 1.139-1.645l9.687 6.71a1.969 1.969 0 0 0 2.74-.5 1.976 1.976 0 0 0 -.48-2.725l-9.64-6.838a1 1 0 1 1 1.157-1.631l9.64 6.838a3.983 3.983 0 0 1 .969 5.493 3.942 3.942 0 0 1 -2.549 1.65 4 4 0 0 1 -.725.065z" data-original="#000000"/><path xmlns="http://www.w3.org/2000/svg" fill="#037ef3" d="m41.061 61.58a4 4 0 0 1 -1.991-.542l-5.377-3.1a1 1 0 0 1 1-1.732l5.376 3.1a2 2 0 0 0 2.7-.716 1.96 1.96 0 0 0 -.587-2.621l-6.87-4.759a1 1 0 0 1 1.139-1.644l6.869 4.758a3.982 3.982 0 0 1 -2.26 7.256z" data-original="#000000"/><path xmlns="http://www.w3.org/2000/svg" fill="#037ef3" d="m29.738 60.983a4.02 4.02 0 0 1 -2.656-7.043l2.671-2.34a4.022 4.022 0 0 1 5.676.369 4.022 4.022 0 0 1 -.37 5.676l-2.671 2.345a4.006 4.006 0 0 1 -2.65.993zm2.667-8.383a2.013 2.013 0 0 0 -1.333.5l-2.672 2.343a2.022 2.022 0 1 0 2.667 3.04l2.671-2.345a2.021 2.021 0 0 0 -1.333-3.538z" data-original="#000000"/><path xmlns="http://www.w3.org/2000/svg" fill="#037ef3" d="m23.684 58.259c-.089 0-.178 0-.267-.008a4 4 0 0 1 -2.762-1.36 4.036 4.036 0 0 1 .345-5.709l4.462-3.917a4.022 4.022 0 0 1 5.676.369l-.723.693.751-.66a4.021 4.021 0 0 1 -.369 5.676l-4.466 3.917a3.99 3.99 0 0 1 -2.647.999zm4.425-9.994a2.007 2.007 0 0 0 -1.331.5l-4.462 3.917a2.052 2.052 0 0 0 1.231 3.57 2 2 0 0 0 1.465-.5l4.462-3.917a2.022 2.022 0 0 0 .186-2.854l-.029-.033a2.006 2.006 0 0 0 -1.384-.679c-.047-.002-.094-.003-.139-.003z" data-original="#000000"/><path xmlns="http://www.w3.org/2000/svg" fill="#037ef3" d="m18.638 54.588c-.088 0-.177 0-.267-.008a4 4 0 0 1 -2.762-1.36l-.109-.13a4.022 4.022 0 0 1 .371-5.674l5.173-4.541a4.021 4.021 0 0 1 5.676.369l.113.129a4.021 4.021 0 0 1 -.371 5.674l-5.173 4.541a3.992 3.992 0 0 1 -2.651 1zm5.053-10.712a2.008 2.008 0 0 0 -1.331.5l-5.173 4.541a2.024 2.024 0 0 0 -.187 2.856l.113.129a2.023 2.023 0 0 0 2.853.184l5.173-4.541a2.022 2.022 0 0 0 .186-2.854l-.111-.127a2.007 2.007 0 0 0 -1.387-.682c-.047-.004-.091-.006-.136-.006z" data-original="#000000"/><path xmlns="http://www.w3.org/2000/svg" fill="#037ef3" d="m14.291 50.137c-.088 0-.178 0-.267-.009a4.048 4.048 0 0 1 -2.424-7.075l3.239-2.843a4.021 4.021 0 0 1 5.676.369l.035.04a4.021 4.021 0 0 1 -.369 5.676l-3.239 2.843a3.991 3.991 0 0 1 -2.651.999zm3.2-8.927a2.008 2.008 0 0 0 -1.331.5l-3.239 2.843a2.022 2.022 0 0 0 -.186 2.854 2.036 2.036 0 0 0 2.888.226l3.239-2.843a2.022 2.022 0 0 0 .186-2.854l-.035-.04a2.007 2.007 0 0 0 -1.388-.683c-.049-.001-.094-.003-.139-.003z" data-original="#000000"/><path xmlns="http://www.w3.org/2000/svg" fill="#037ef3" d="m12.477 44.612a.994.994 0 0 1 -.6-.2l-3.417-2.6a1 1 0 0 1 1.211-1.592l3.417 2.6a1 1 0 0 1 -.606 1.8z" data-original="#000000"/><path xmlns="http://www.w3.org/2000/svg" fill="#037ef3" d="m58.519 45.72a1 1 0 0 1 -.707-1.707l5.611-5.613a1 1 0 0 1 1.414 1.414l-5.611 5.611a1 1 0 0 1 -.707.295z" data-original="#000000"/><path xmlns="http://www.w3.org/2000/svg" fill="#037ef3" d="m66.17 43.645a1 1 0 0 1 -.853-.476l-12.21-19.86a1 1 0 0 1 .24-1.314l12.093-9.366a1 1 0 0 1 1.587.567l5.947 25.947a1 1 0 0 1 -.485 1.1l-5.831 3.277a.994.994 0 0 1 -.488.125zm-10.889-20.62 11.236 18.275 4.341-2.44-5.43-23.692z" data-original="#000000"/><path xmlns="http://www.w3.org/2000/svg" fill="#037ef3" d="m7.83 44a1 1 0 0 1 -.489-.128l-5.831-3.272a1 1 0 0 1 -.485-1.1l5.948-25.944a1 1 0 0 1 1.587-.567l12.094 9.365a1 1 0 0 1 .24 1.314l-12.211 19.86a1 1 0 0 1 -.853.472zm-4.688-4.778 4.341 2.439 11.236-18.276-10.147-7.857z" data-original="#000000"/></g></svg>