<?xml version="1.0"?>
<svg xmlns="http://www.w3.org/2000/svg" xmlns:xlink="http://www.w3.org/1999/xlink" xmlns:svgjs="http://svgjs.com/svgjs" version="1.1" width="512" height="512" x="0" y="0" viewBox="0 0 75 75" style="enable-background:new 0 0 512 512" xml:space="preserve" class=""><g><path xmlns="http://www.w3.org/2000/svg" d="M42.978,59.385H31.744a.75.75,0,0,1-.723-.95l1.494-5.4a.75.75,0,1,1,1.445.4l-1.231,4.453h9.26l-1.053-3.763a.75.75,0,1,1,1.444-.405l1.32,4.716a.751.751,0,0,1-.722.952Z" fill="#037ef3" data-original="#000000" style=""/><path xmlns="http://www.w3.org/2000/svg" d="M47.573,62.25H27.148a.75.75,0,0,1-.713-.981,4.86,4.86,0,0,1,4.626-3.384h12.6a4.86,4.86,0,0,1,4.626,3.384.75.75,0,0,1-.713.981Zm-19.208-1.5H46.356a3.345,3.345,0,0,0-2.7-1.365h-12.6A3.347,3.347,0,0,0,28.365,60.75Z" fill="#037ef3" data-original="#000000" style=""/><path xmlns="http://www.w3.org/2000/svg" d="M55.16,50.514a.751.751,0,0,1-.528-.217l-3.915-3.872a.75.75,0,1,1,1.055-1.066L55.155,48.7l1.659-1.673-3.458-3.42a.75.75,0,0,1,1.055-1.066L58.4,46.493a.752.752,0,0,1,.005,1.062l-2.716,2.737A.751.751,0,0,1,55.16,50.514Z" fill="#037ef3" data-original="#000000" style=""/><path xmlns="http://www.w3.org/2000/svg" d="M25.146,20.849a.747.747,0,0,1-.527-.216l-3.905-3.85a.75.75,0,0,1-.008-1.06l2.705-2.749a.748.748,0,0,1,.529-.224h.006a.754.754,0,0,1,.527.216l3.98,3.926A.75.75,0,1,1,27.4,17.96l-3.445-3.4L22.3,16.241l3.371,3.323a.75.75,0,0,1-.526,1.285Z" fill="#037ef3" data-original="#000000" style=""/><path xmlns="http://www.w3.org/2000/svg" d="M23.005,40.184a2.457,2.457,0,0,1-1-.2.75.75,0,1,1,.6-1.373,1.3,1.3,0,0,0,1.093-.112,3.959,3.959,0,0,0,1.311-1.453,2.445,2.445,0,0,0,.541-1.505,2.971,2.971,0,0,0-.65-1.2,5.434,5.434,0,0,1-.843-1.459,5.084,5.084,0,0,1-.189-1.129,2.666,2.666,0,0,0-.211-1.01c-.83-1.475.843-3.045,1.742-3.887.141-.134.257-.237.313-.3a.793.793,0,0,0,.086-.207,1.4,1.4,0,0,0-.449.047,3.629,3.629,0,0,1-3.179-.86.553.553,0,0,0-.184-.117.75.75,0,1,1,.591-1.379,2.031,2.031,0,0,1,.639.421A2.146,2.146,0,0,0,25,24.933a2,2,0,0,1,1.881.3,1.643,1.643,0,0,1,.078,2.16,3.548,3.548,0,0,1-.525.553C25.015,29.276,24.854,29.8,24.97,30a3.852,3.852,0,0,1,.4,1.615,3.882,3.882,0,0,0,.121.794,4.23,4.23,0,0,0,.627,1.04,4.18,4.18,0,0,1,.928,1.9,3.879,3.879,0,0,1-.757,2.482,5.285,5.285,0,0,1-1.857,1.971A2.975,2.975,0,0,1,23.005,40.184Z" fill="#037ef3" data-original="#000000" style=""/><path xmlns="http://www.w3.org/2000/svg" d="M33.483,33.636a3.48,3.48,0,0,1-.928-.123,2.6,2.6,0,0,0-.89-.169h-.03a2.173,2.173,0,0,1-1.828-.994A1.987,1.987,0,0,1,29.7,30.4l.063-.126a.748.748,0,0,1,.722-.4c.092-.023.309-.285.439-.441a2.989,2.989,0,0,1,1.053-.911,2.664,2.664,0,0,1,1.343-.132,1.253,1.253,0,0,0,.64-.031,1.9,1.9,0,0,0,.421-.531,3.488,3.488,0,0,1,.832-.98c2.2-1.6,3.693-1.25,4.559-.678a4.18,4.18,0,0,1,1.7,2.929,2.17,2.17,0,0,1-.282,1.536,2.3,2.3,0,0,1-1.791.824l-.237.03a7.017,7.017,0,0,0-2.244.95c-.2.109-.388.218-.583.322A6,6,0,0,1,33.483,33.636ZM31.7,31.844a3.714,3.714,0,0,1,1.317.243,3.725,3.725,0,0,0,2.6-.638c.194-.1.379-.207.564-.311a8.244,8.244,0,0,1,2.758-1.126l.282-.035c.278-.033.657-.078.735-.192.018-.025.074-.125.027-.473a2.689,2.689,0,0,0-1.042-1.885c-.85-.561-2.015.036-2.841.636a2.312,2.312,0,0,0-.459.583,3,3,0,0,1-.871.981,2.381,2.381,0,0,1-1.585.264,1.542,1.542,0,0,0-.609.012,2.031,2.031,0,0,0-.5.5,2.678,2.678,0,0,1-1.083.9.5.5,0,0,0,.08.252.737.737,0,0,0,.57.3Zm-1.326-1.111h0Z" fill="#037ef3" data-original="#000000" style=""/><path xmlns="http://www.w3.org/2000/svg" d="M39.2,54.81A22.816,22.816,0,0,1,21.964,17.034a.75.75,0,1,1,1.133.984,21.314,21.314,0,0,0,30.262,29.9.75.75,0,0,1,1,1.122A22.786,22.786,0,0,1,39.2,54.81Z" fill="#037ef3" data-original="#000000" style=""/><path xmlns="http://www.w3.org/2000/svg" d="M39.2,51.144a19.16,19.16,0,1,1,19.16-19.16A19.182,19.182,0,0,1,39.2,51.144Zm0-36.82a17.66,17.66,0,1,0,17.66,17.66A17.68,17.68,0,0,0,39.2,14.324Z" fill="#037ef3" data-original="#000000" style=""/><path xmlns="http://www.w3.org/2000/svg" d="M46.491,26.245a2.409,2.409,0,0,1-.617-.077,3.716,3.716,0,0,1-2.016-1.7,18.47,18.47,0,0,1-2.294-4.023l-.081-.229a2.381,2.381,0,0,0-.421-.862,1.55,1.55,0,0,0-1.138-.315c0,.033,0,.066,0,.094a2.02,2.02,0,0,1-.2,1.05,1.509,1.509,0,0,1-1.691.678,2.81,2.81,0,0,1-1.123-.588L35.164,18.94c-.655-.5-1.481-1.037-2.092-.8a2.361,2.361,0,0,0-.348.2,2.468,2.468,0,0,1-1.159.452,2.245,2.245,0,0,1-1.882-.956c-.088-.1-.18-.22-.272-.339a2.665,2.665,0,0,0-.448-.5.75.75,0,1,1,.893-1.2,3.819,3.819,0,0,1,.742.785c.074.1.15.194.229.286.232.28.461.448.622.431a1.349,1.349,0,0,0,.481-.23,3.783,3.783,0,0,1,.593-.319c1.473-.571,2.926.532,3.546,1L37.8,19.063a1.719,1.719,0,0,0,.557.333l.1,0c-.028-.013-.03-.153-.031-.249a1.441,1.441,0,0,1,.63-1.418,1.4,1.4,0,0,1,.6-.18,3,3,0,0,1,2.475.746,3.535,3.535,0,0,1,.772,1.423l.073.208a17.12,17.12,0,0,0,2.1,3.654c.4.567.75,1.027,1.172,1.131a2.189,2.189,0,0,0,1.027-.106,35.827,35.827,0,0,0,4.672-1.539,12.42,12.42,0,0,0,2.523-1.325.75.75,0,1,1,.866,1.224,13.886,13.886,0,0,1-2.823,1.49,37.133,37.133,0,0,1-4.862,1.6A4.557,4.557,0,0,1,46.491,26.245Z" fill="#037ef3" data-original="#000000" style=""/><path xmlns="http://www.w3.org/2000/svg" d="M47.875,48.965a.75.75,0,0,1-.675-.422,7.046,7.046,0,0,1-.921-3.953,7.66,7.66,0,0,1,.584-1.968c.079-.2.158-.4.229-.594a2.934,2.934,0,0,0,.188-1.972,4.089,4.089,0,0,0-1.447-1.514,1.466,1.466,0,0,1-.474-2l1.257-2.963a1.785,1.785,0,0,1,.534-.779,1.716,1.716,0,0,1,.924-.329,8.083,8.083,0,0,1,3.345.383l.363.132a3.644,3.644,0,0,0,1.062.287,3.191,3.191,0,0,0,1.371-.4,8.1,8.1,0,0,1,1.023-.392,2.231,2.231,0,0,1,1.075-.093,2.428,2.428,0,0,1,.961.448l.109.075c.2.142.412.287.6.448a.75.75,0,1,1-.965,1.149c-.156-.132-.327-.249-.493-.364l-.108-.075a1.423,1.423,0,0,0-.371-.2.822.822,0,0,0-.378.053,6.913,6.913,0,0,0-.857.33,4.665,4.665,0,0,1-2.026.523,4.9,4.9,0,0,1-1.532-.38l-.324-.119a6.576,6.576,0,0,0-2.7-.311.8.8,0,0,0-.175.032.624.624,0,0,1-.055.162l-1.256,2.962c-.018.043-.049.118-.068.177.014.012.032.026.056.043a5.243,5.243,0,0,1,1.952,2.186,4.442,4.442,0,0,1-.18,3.007c-.078.216-.163.429-.248.643a6.468,6.468,0,0,0-.487,1.592,5.75,5.75,0,0,0,.78,3.119.749.749,0,0,1-.674,1.077Z" fill="#037ef3" data-original="#000000" style=""/><path xmlns="http://www.w3.org/2000/svg" d="M43.011,50.754a.75.75,0,0,1-.654-.381,12.663,12.663,0,0,1-.672-1.39l-.142-.353a5,5,0,0,0-.737-1.419,5.08,5.08,0,0,0-1.353-.955,5.334,5.334,0,0,1-2-1.622,5.609,5.609,0,0,1-.536-1.212,2.4,2.4,0,0,0-.6-1.135,2.5,2.5,0,0,0-1.168-.316,3.958,3.958,0,0,0-1.4.018c-.288.088-.531.308-.55.507a1.164,1.164,0,0,0-.009.136,1.7,1.7,0,0,1-.086.536,1.5,1.5,0,0,1-1.687.879,3.112,3.112,0,0,1-.735-.213,3.135,3.135,0,0,0-.309-.107,3.6,3.6,0,0,0-2.39.57l-1.912.918a.75.75,0,1,1-.652-1.351l1.909-.916a4.844,4.844,0,0,1,3.439-.669,4.743,4.743,0,0,1,.452.155,2.064,2.064,0,0,0,.413.129.471.471,0,0,0,.059.006c0-.083.008-.165.018-.245a2.178,2.178,0,0,1,1.615-1.774,5.2,5.2,0,0,1,1.961-.072,3.754,3.754,0,0,1,1.946.623,3.605,3.605,0,0,1,1.1,1.829,4.4,4.4,0,0,0,.38.891,4.108,4.108,0,0,0,1.474,1.128,6.244,6.244,0,0,1,1.75,1.279,6.184,6.184,0,0,1,1,1.848l.134.333a11.114,11.114,0,0,0,.592,1.226.75.75,0,0,1-.652,1.119Z" fill="#037ef3" data-original="#000000" style=""/></g></svg>
