<svg xmlns="http://www.w3.org/2000/svg" xmlns:svgjs="http://svgjs.com/svgjs" xmlns:xlink="http://www.w3.org/1999/xlink" style="enable-background:new 0 0 512 512" width="512" height="512" x="0" y="0" version="1.1" viewBox="0 0 512 512" xml:space="preserve"><g><g xmlns="http://www.w3.org/2000/svg"><path fill="#0cb9c1" d="m492.925 60.112c-2.636-3.194-7.363-3.647-10.559-1.012-3.195 2.636-3.648 7.363-1.012 10.559 10.09 12.227 15.646 27.71 15.646 43.596v98.81c0 37.82-30.769 68.59-68.59 68.59h-10.16c-4.142 0-7.5 3.358-7.5 7.5v39.12c0 8.025-5.265 12.864-10.191 14.716-4.93 1.853-12.083 1.679-17.375-4.365l-47.61-54.41c-1.424-1.627-3.481-2.561-5.644-2.561h-99.48c-37.821 0-68.59-30.77-68.59-68.59v-98.81c0-37.821 30.77-68.59 68.59-68.59h197.96c11.245 0 22.385 2.778 32.213 8.034 3.651 1.953 8.196.576 10.15-3.077 1.953-3.653.576-8.197-3.077-10.15-11.998-6.415-25.583-9.806-39.287-9.806h-197.959c-46.092 0-83.59 37.498-83.59 83.59v40.71h-63.27c-46.092 0-83.59 37.498-83.59 83.59v98.81c0 46.092 37.498 83.59 83.59 83.59h2.66v31.61c0 12.927 7.818 24.218 19.917 28.766 3.588 1.349 7.281 2.003 10.926 2.003 8.649 0 17.02-3.686 23.011-10.53l45.369-51.849h17.197c4.142 0 7.5-3.358 7.5-7.5s-3.358-7.5-7.5-7.5h-20.6c-2.163 0-4.22.934-5.644 2.561l-47.609 54.408c-5.292 6.044-12.444 6.22-17.373 4.366-4.928-1.852-10.194-6.693-10.194-14.725v-39.11c0-4.142-3.358-7.5-7.5-7.5h-10.16c-37.821 0-68.59-30.77-68.59-68.59v-98.81c0-37.821 30.769-68.59 68.59-68.59h63.27v43.1c0 46.092 37.499 83.59 83.59 83.59h96.077l23.613 26.986v13.724c0 37.821-30.77 68.59-68.59 68.59h-48.9c-4.142 0-7.5 3.358-7.5 7.5s3.358 7.5 7.5 7.5h48.9c44.978 0 81.753-35.712 83.506-80.268l6.841 7.818c5.992 6.844 14.361 10.529 23.011 10.529 3.645 0 7.341-.655 10.928-2.003 12.097-4.547 19.914-15.835 19.914-28.757v-31.62h2.66c46.092 0 83.59-37.498 83.59-83.59v-98.81c0-19.362-6.774-38.235-19.075-53.143z" data-original="#000000"/><path fill="#0cb9c1" d="m139.979 322.12v.471c0 4.142 3.358 7.5 7.5 7.5s7.5-3.358 7.5-7.5v-.471c0-4.142-3.358-7.5-7.5-7.5s-7.5 3.358-7.5 7.5z" data-original="#000000"/><path fill="#0cb9c1" d="m176.136 322.12v.471c0 4.142 3.358 7.5 7.5 7.5s7.5-3.358 7.5-7.5v-.471c0-4.142-3.358-7.5-7.5-7.5s-7.5 3.358-7.5 7.5z" data-original="#000000"/><path fill="#0cb9c1" d="m225.163 322.12c0-4.142-3.358-7.5-7.5-7.5s-7.5 3.358-7.5 7.5v.471c0 4.142 3.358 7.5 7.5 7.5s7.5-3.358 7.5-7.5z" data-original="#000000"/><path fill="#0cb9c1" d="m423.365 142.361c1.653-6.167.805-12.609-2.388-18.139l-11.719-20.298c-3.192-5.53-8.347-9.485-14.515-11.138-6.169-1.653-12.61-.805-18.139 2.388l-6.283 3.627c-1.716-1.085-3.474-2.103-5.267-3.048v-7.249c0-13.181-10.724-23.904-23.905-23.904h-23.439c-13.181 0-23.905 10.724-23.905 23.904v7.249c-1.793.945-3.552 1.962-5.267 3.048l-6.283-3.627c-11.415-6.59-26.064-2.666-32.654 8.75l-11.719 20.298c-3.192 5.53-4.041 11.972-2.388 18.139s5.608 11.322 11.138 14.515l6.286 3.629c-.04 1.016-.06 2.03-.06 3.04 0 1.009.02 2.024.06 3.039l-6.286 3.629c-11.415 6.591-15.34 21.239-8.75 32.654l11.719 20.299c6.591 11.413 21.239 15.339 32.654 8.749l6.283-3.627c1.716 1.086 3.474 2.103 5.268 3.048v7.248c0 13.181 10.724 23.905 23.905 23.905h23.438c13.181 0 23.905-10.724 23.905-23.905v-7.248c1.793-.945 3.551-1.962 5.267-3.048l6.283 3.627c11.416 6.589 26.063 2.665 32.654-8.75l11.719-20.298c3.193-5.53 4.041-11.972 2.388-18.139-1.652-6.167-5.608-11.322-11.138-14.515l-6.287-3.629c.04-1.015.06-2.029.06-3.039s-.02-2.024-.06-3.039l6.287-3.63c5.53-3.193 9.485-8.348 11.138-14.515zm-14.489-3.882c-.616 2.297-2.089 4.217-4.149 5.407l-10.348 5.975c-2.562 1.479-4.015 4.325-3.71 7.267.22 2.124.331 4.283.331 6.417s-.111 4.294-.331 6.417c-.305 2.942 1.148 5.788 3.71 7.267l10.348 5.974c2.06 1.189 3.533 3.11 4.149 5.407s.3 4.697-.89 6.757l-11.719 20.298c-2.455 4.251-7.912 5.714-12.164 3.259l-10.352-5.977c-2.566-1.481-5.764-1.313-8.161.429-3.469 2.522-7.202 4.682-11.095 6.42-2.703 1.206-4.443 3.889-4.443 6.849v11.938c0 4.91-3.995 8.905-8.905 8.905h-23.437c-4.91 0-8.905-3.995-8.905-8.905v-11.938c0-2.959-1.74-5.643-4.443-6.849-3.895-1.738-7.627-3.898-11.096-6.42-1.309-.952-2.857-1.434-4.411-1.434-1.291 0-2.585.333-3.75 1.005l-10.351 5.977c-4.254 2.455-9.709.993-12.164-3.259l-11.719-20.298c-2.455-4.252-.992-9.709 3.26-12.164l10.348-5.974c2.562-1.479 4.015-4.325 3.71-7.267-.22-2.126-.332-4.286-.332-6.417s.112-4.291.332-6.418c.305-2.942-1.148-5.788-3.71-7.267l-10.348-5.974c-2.06-1.189-3.533-3.109-4.149-5.407s-.3-4.697.889-6.757l11.719-20.298c2.455-4.252 7.912-5.716 12.164-3.259l10.352 5.977c2.566 1.482 5.765 1.313 8.161-.429 3.467-2.521 7.2-4.682 11.095-6.42 2.702-1.207 4.442-3.889 4.442-6.849v-11.939c0-4.91 3.995-8.904 8.905-8.904h23.438c4.91 0 8.905 3.995 8.905 8.904v11.938c0 2.959 1.74 5.642 4.442 6.849 3.895 1.738 7.627 3.899 11.096 6.42 2.397 1.743 5.595 1.912 8.161.429l10.352-5.977c2.06-1.189 4.459-1.505 6.757-.89 2.297.616 4.217 2.089 5.407 4.149l11.719 20.298c1.19 2.061 1.506 4.46.89 6.758z" data-original="#000000"/><path fill="#0cb9c1" d="m329.429 117.503c-25.387 0-46.041 20.654-46.041 46.041s20.654 46.041 46.041 46.041 46.041-20.654 46.041-46.041-20.654-46.041-46.041-46.041zm0 77.082c-17.116 0-31.041-13.925-31.041-31.041s13.925-31.041 31.041-31.041 31.041 13.925 31.041 31.041-13.925 31.041-31.041 31.041z" data-original="#000000"/></g></g></svg>