<svg xmlns="http://www.w3.org/2000/svg" xmlns:xlink="http://www.w3.org/1999/xlink" width="1440" height="190.147" viewBox="0 0 1440 190.147"><defs><clipPath id="a"><rect width="1440" height="190.147" fill="#fff"/></clipPath></defs><g transform="translate(0 0)"><g transform="translate(0 0)" clip-path="url(#a)"><path d="M81.108,52.8c-6.445-8.325-13.159-12.089-29.273-12.089-12.085,0-20.948,4.032-20.948,13.7,0,11.283,9.937,14.774,25.513,16.654,29.81,3.488,49.146,13.968,49.146,42.432,0,24.707-16.919,40.824-51.563,40.824-27.393,0-42.97-7.52-53.984-22.29l21.753-15.58c6.18,8.325,14.237,12.622,31.962,12.622,14.771,0,23.365-5.371,23.365-14.771,0-11.011-6.983-14.234-27.934-16.919-25.513-3.223-47-13.965-47-42.164,0-23.9,17.46-40.015,50.224-40.015,22.022,0,39.478,5.636,49.952,22.29Z" transform="translate(0 35.828)" fill="#fff"/><path d="M46.4.72H77.821V30H46.4Zm1.343,51.026H76.479V186.03H47.743Z" transform="translate(109.365 1.697)" fill="#fff"/><path d="M75.279,17.617h28.2V29.706c5.908-8.06,15.58-14.506,33.3-14.506,27.665,0,48.881,13.965,48.881,52.638V151.9H157.19V71.064c0-23.637-10.739-30.351-25.513-30.351-17.722,0-27.662,12.085-27.662,30.082V151.9H75.279Z" transform="translate(177.432 35.826)" fill="#fff"/><path d="M232.168,131.49c-8.862,15.848-24.708,22.831-47.8,22.831-37.6,0-59.086-24.174-59.086-60.7V75.357c0-38.669,21.757-60.157,60.161-60.157,20.411,0,37.33,7.523,46.729,21.757l-22.022,15.3c-5.1-7.251-13.7-12.085-25.245-12.085-20.948,0-31.153,13.428-31.153,36.527V92.28c0,20.948,7.516,37.326,31.153,37.326,11.279,0,20.411-4.025,25.513-13.156Z" transform="translate(295.28 35.826)" fill="#fff"/><path d="M277.368,131.487c-9.4,16.382-24.439,22.831-48.072,22.831-38.4,0-58.818-24.979-58.818-60.7V75.358C170.478,35.88,189.818,15.2,225,15.2c36.8,0,54.252,22.022,54.252,61.769V91.744h-80.3v.537c0,20.944,8.057,37.326,29.273,37.326,15.845,0,22.29-4.834,27.662-13.159ZM199.217,69.719h51.295c-1.074-19.6-9.131-29.545-25.513-29.545-16.651,0-24.439,11.283-25.782,29.545" transform="translate(401.816 35.828)" fill="#fff"/><path d="M313.5,186.03H282.346V34.29L255.759,52.552V21.131L284.226.72H313.5Z" transform="translate(602.822 1.698)" fill="#fff"/><path d="M358.715,109.039c-5.375,2.954-11.82,3.76-17.725,3.76-29.008,0-49.952-23.365-49.952-55.055C291.038,20.411,316.279,0,349.316,0c33.3,0,58.546,20.145,58.546,57.207,0,13.7-6.714,30.347-15.039,48.609l-37.6,81.914H321.385Zm-9.4-81.914c-16.919,0-27.128,11.82-27.128,29.813,0,17.725,10.209,29.813,27.128,29.813,17.456,0,27.393-12.089,27.393-29.813,0-17.993-9.937-29.813-27.393-29.813" transform="translate(685.975 0)" fill="#fff"/><path d="M437.218.72,377.863,130.975h43.507V80.482h31.156v50.493h16.919V158.1H452.525v27.93H421.369V158.1H340V136.074L404.181.72Z" transform="translate(801.368 1.697)" fill="#fff"/><path d="M421.2,91.582c-14.771-7.523-25.245-23.1-25.245-40.556C395.96,19.068,423.353,0,453.166,0c30.079,0,57.2,19.068,57.2,51.026,0,17.456-10.474,33.033-25.245,40.556,15.039,6.442,27.93,23.361,27.93,44.312,0,33.839-27.93,54.252-59.889,54.252s-59.892-20.414-59.892-54.252c0-20.951,13.428-37.87,27.93-44.312m31.962,71.705a29.113,29.113,0,0,0,29-29.273c0-17.993-15.308-29-29-29a28.627,28.627,0,0,0-28.739,29c0,16.114,12.085,29.273,28.739,29.273m0-83.522a26.425,26.425,0,0,0,26.319-26.591,26.322,26.322,0,1,0-26.319,26.591" transform="translate(926.945 0)" fill="#fff"/></g></g></svg>