<svg xmlns="http://www.w3.org/2000/svg" width="37" height="38" viewBox="0 0 37 38"><g transform="translate(-2981 -699)"><path d="M18.5,1A17.145,17.145,0,0,0,6.135,6.263a18.365,18.365,0,0,0,0,25.475,17.158,17.158,0,0,0,24.73,0,18.365,18.365,0,0,0,0-25.475A17.145,17.145,0,0,0,18.5,1m0-1A18.755,18.755,0,0,1,37,19,18.755,18.755,0,0,1,18.5,38,18.755,18.755,0,0,1,0,19,18.755,18.755,0,0,1,18.5,0Z" transform="translate(2981 699)" fill="#fff" opacity="0.6"/><path d="M-3100.112,728.066H-3113.1v-1h10.334l-4.167-1.631.364-.931,6.634,2.6Z" transform="translate(6105.777 -8.407)" fill="#fff"/></g></svg>