<?xml version="1.0"?>
<svg xmlns="http://www.w3.org/2000/svg" xmlns:xlink="http://www.w3.org/1999/xlink" xmlns:svgjs="http://svgjs.com/svgjs" version="1.1" width="512" height="512" x="0" y="0" viewBox="0 0 128 128" style="enable-background:new 0 0 512 512" xml:space="preserve" class=""><g><title xmlns="http://www.w3.org/2000/svg">24 HOURS SERVICE</title><path xmlns="http://www.w3.org/2000/svg" d="M98.667,64A34.765,34.765,0,0,0,73.319,30.6a1.25,1.25,0,1,0-.67,2.408,32.166,32.166,0,0,1-6.011,63.04l4.475-5.784a1.25,1.25,0,1,0-1.977-1.53l-6.125,7.916a426.075,426.075,0,0,1-.18.361,1.223,1.223,0,0,0-.049.244,1.184,1.184,0,0,0-.032.159c0,.028.014.051.016.078s-.009.053-.006.08a1.2,1.2,0,0,0,.055.163,1.375,1.375,0,0,0,.369.608c.02.018.031.043.052.06l7.875,6.084a1.25,1.25,0,0,0,1.529-1.979l-5.2-4.016A34.714,34.714,0,0,0,98.667,64Z" fill="#0cb9c1" data-original="#000000" style="" class=""/><path xmlns="http://www.w3.org/2000/svg" d="M57.11,39.489a1.251,1.251,0,0,0,1.754-.224l6.125-7.916a1.23,1.23,0,0,0,.07-.14.949.949,0,0,0,.159-.467,1.166,1.166,0,0,0,.032-.158c0-.027-.014-.05-.016-.077s.009-.054.006-.082a286.486,286.486,0,0,1-.132-.392,1.943,1.943,0,0,0-.292-.379c-.02-.018-.031-.043-.052-.06l-7.875-6.084a1.25,1.25,0,0,0-1.528,1.979l5.2,4.016a34.672,34.672,0,0,0-6.033,67.851,1.25,1.25,0,0,0,.682-2.405,32.167,32.167,0,0,1,6.154-63l-4.476,5.784A1.251,1.251,0,0,0,57.11,39.489Z" fill="#0cb9c1" data-original="#000000" style="" class=""/><path xmlns="http://www.w3.org/2000/svg" d="M51.992,66.516a19.284,19.284,0,0,0,1.97-2,8.207,8.207,0,0,0,1.2-2.008,5.424,5.424,0,0,0,.38-2.018,4.109,4.109,0,0,0-1.328-3.116,5.106,5.106,0,0,0-3.651-1.253A5.644,5.644,0,0,0,47.034,57.2a4.915,4.915,0,0,0-1.681,3.566l3,.3a2.914,2.914,0,0,1,.642-1.885,2.3,2.3,0,0,1,2.993-.027,2.094,2.094,0,0,1,.541,1.547,3.31,3.31,0,0,1-.621,1.842,21.288,21.288,0,0,1-2.495,2.57,19.986,19.986,0,0,0-3.383,3.764,7.263,7.263,0,0,0-1.028,3H55.547V69.086H49.572a5.2,5.2,0,0,1,.616-.835Q50.568,67.822,51.992,66.516Z" fill="#0cb9c1" data-original="#000000" style="" class=""/><path xmlns="http://www.w3.org/2000/svg" d="M63.481,71.881h2.912V68.722h1.949V66.077H66.393V56.119H63.866l-6.81,9.969v2.634h6.424Zm-3.608-5.8,3.608-5.364v5.364Z" fill="#0cb9c1" data-original="#000000" style="" class=""/><polygon xmlns="http://www.w3.org/2000/svg" points="73.62 65.017 79.831 65.017 79.831 71.881 83 71.881 83 56.184 79.831 56.184 79.831 62.362 73.62 62.362 73.62 56.184 70.451 56.184 70.451 71.881 73.62 71.881 73.62 65.017" fill="#0cb9c1" data-original="#000000" style="" class=""/></g></svg>
