<svg xmlns="http://www.w3.org/2000/svg" xmlns:svgjs="http://svgjs.com/svgjs" xmlns:xlink="http://www.w3.org/1999/xlink" style="enable-background:new 0 0 512 512" width="512" height="512" x="0" y="0" version="1.1" viewBox="0 0 128 128" xml:space="preserve"><g><title xmlns="http://www.w3.org/2000/svg">DOCUMENT</title><path xmlns="http://www.w3.org/2000/svg" fill="#0cb9c1" d="M82.75,71.879A1.25,1.25,0,0,0,84,70.629V64.154a1.25,1.25,0,0,0-1.25-1.25H79.57a16.043,16.043,0,0,0-1.391-3.347l2.252-2.252a1.25,1.25,0,0,0,0-1.768L75.853,50.96a1.25,1.25,0,0,0-1.768,0l-2.252,2.252a16.061,16.061,0,0,0-3.346-1.391v-3.18a1.25,1.25,0,0,0-1.25-1.25H60.763a1.25,1.25,0,0,0-1.25,1.25v3.18a16.061,16.061,0,0,0-3.346,1.391L53.915,50.96a1.25,1.25,0,0,0-1.768,0l-4.578,4.578a1.25,1.25,0,0,0,0,1.768l2.252,2.252A16.043,16.043,0,0,0,48.43,62.9H45.25A1.25,1.25,0,0,0,44,64.154v6.475a1.25,1.25,0,0,0,1.25,1.25h3.18a16.006,16.006,0,0,0,1.391,3.346l-2.252,2.252a1.25,1.25,0,0,0,0,1.767l4.578,4.578a1.25,1.25,0,0,0,1.768,0l2.252-2.252a16,16,0,0,0,3.346,1.391v3.181a1.25,1.25,0,0,0,1.25,1.25h6.475a1.25,1.25,0,0,0,1.25-1.25V82.961a16,16,0,0,0,3.346-1.391l2.252,2.252a1.25,1.25,0,0,0,1.768,0l4.578-4.578a1.25,1.25,0,0,0,0-1.767l-2.252-2.252a16.006,16.006,0,0,0,1.391-3.346Zm-5.372-1.52a13.579,13.579,0,0,1-1.824,4.389,1.25,1.25,0,0,0,.17,1.557L77.78,78.36l-2.811,2.811-2.056-2.056a1.252,1.252,0,0,0-1.557-.17,13.531,13.531,0,0,1-4.389,1.823,1.249,1.249,0,0,0-.98,1.221v2.9H62.013v-2.9a1.249,1.249,0,0,0-.98-1.221,13.531,13.531,0,0,1-4.389-1.823,1.252,1.252,0,0,0-1.557.17l-2.056,2.056L50.22,78.36,52.276,76.3a1.25,1.25,0,0,0,.17-1.557,13.579,13.579,0,0,1-1.824-4.389,1.25,1.25,0,0,0-1.221-.98H46.5V65.4h2.9a1.25,1.25,0,0,0,1.221-.981,13.575,13.575,0,0,1,1.824-4.39,1.25,1.25,0,0,0-.17-1.557L50.22,56.422l2.811-2.811,2.056,2.056a1.252,1.252,0,0,0,1.556.17,13.572,13.572,0,0,1,4.389-1.823,1.249,1.249,0,0,0,.98-1.221v-2.9h3.975v2.9a1.249,1.249,0,0,0,.98,1.221,13.572,13.572,0,0,1,4.389,1.823,1.252,1.252,0,0,0,1.556-.17l2.056-2.056,2.811,2.811-2.056,2.056a1.25,1.25,0,0,0-.17,1.557,13.575,13.575,0,0,1,1.824,4.39A1.25,1.25,0,0,0,78.6,65.4h2.9v3.975H78.6A1.25,1.25,0,0,0,77.378,70.359Z" data-original="#000000"/><path xmlns="http://www.w3.org/2000/svg" fill="#0cb9c1" d="M64,59.779a1.25,1.25,0,0,0,0,2.5,5.11,5.11,0,1,1-4.325,2.386,1.25,1.25,0,0,0-2.114-1.334A7.612,7.612,0,1,0,64,59.779Z" data-original="#000000"/><path xmlns="http://www.w3.org/2000/svg" fill="#0cb9c1" d="M103.5,52.25A1.25,1.25,0,0,0,104.75,51V47.264a6.5,6.5,0,0,0-6.488-6.488H53.955l-3.43-4.066c-.276-.327-.5-.61-.7-.855-1.611-2-2.04-2.065-5.46-2.065H29.738a6.5,6.5,0,0,0-6.488,6.488V87.722a6.5,6.5,0,0,0,6.488,6.488H98.262a6.5,6.5,0,0,0,6.488-6.488V58.167a1.25,1.25,0,0,0-2.5,0V87.722a3.993,3.993,0,0,1-3.988,3.988H29.738a3.993,3.993,0,0,1-3.988-3.988V40.278a3.993,3.993,0,0,1,3.988-3.988H44.365c2.6,0,2.6,0,3.514,1.134.207.257.446.553.736.9l3.8,4.511a1.248,1.248,0,0,0,.956.444H98.262a3.993,3.993,0,0,1,3.988,3.988V51A1.25,1.25,0,0,0,103.5,52.25Z" data-original="#000000"/></g></svg>