<svg xmlns="http://www.w3.org/2000/svg" xmlns:svgjs="http://svgjs.com/svgjs" xmlns:xlink="http://www.w3.org/1999/xlink" style="enable-background:new 0 0 512 512" width="512" height="512" x="0" y="0" version="1.1" viewBox="0 0 128 128" xml:space="preserve"><g><title xmlns="http://www.w3.org/2000/svg">INFORMATION</title><path xmlns="http://www.w3.org/2000/svg" fill="#0cb9c1" d="M98.825,35.969a1.25,1.25,0,0,0,1.25-1.25V31.514a8.273,8.273,0,0,0-8.264-8.264H36.189a8.273,8.273,0,0,0-8.264,8.264V87.136A8.273,8.273,0,0,0,36.189,95.4h.281v8.1a1.25,1.25,0,0,0,2.134.884L47.589,95.4H91.811a8.273,8.273,0,0,0,8.264-8.264V40.417a1.25,1.25,0,1,0-2.5,0V87.136A5.77,5.77,0,0,1,91.811,92.9H47.071a1.25,1.25,0,0,0-.884.366l-7.217,7.217V94.149a1.25,1.25,0,0,0-1.25-1.25H36.189a5.77,5.77,0,0,1-5.764-5.764V31.514a5.77,5.77,0,0,1,5.764-5.764H91.811a5.77,5.77,0,0,1,5.764,5.764v3.205A1.25,1.25,0,0,0,98.825,35.969Z" data-original="#000000"/><path xmlns="http://www.w3.org/2000/svg" fill="#0cb9c1" d="M55.177,73.281a3.243,3.243,0,0,0-3.24,3.239v4.772a3.243,3.243,0,0,0,3.24,3.239H72.823a3.243,3.243,0,0,0,3.24-3.239V76.521a3.243,3.243,0,0,0-3.24-3.239H68.375a1.25,1.25,0,0,0,0,2.5h4.448a.741.741,0,0,1,.74.739v4.772a.741.741,0,0,1-.74.739H55.177a.741.741,0,0,1-.74-.739V76.521a.741.741,0,0,1,.74-.739h4.448a1.25,1.25,0,0,0,1.25-1.25V58.7a1.25,1.25,0,0,0-1.25-1.25H56.177a.741.741,0,0,1-.74-.74v-4.77a.741.741,0,0,1,.74-.739H66.385a.741.741,0,0,1,.74.739V69.083a1.25,1.25,0,0,0,2.5,0V51.938a3.243,3.243,0,0,0-3.24-3.239H56.177a3.243,3.243,0,0,0-3.24,3.239v4.77a3.243,3.243,0,0,0,3.24,3.24h2.2V73.281Z" data-original="#000000"/><path xmlns="http://www.w3.org/2000/svg" fill="#0cb9c1" d="M69.063,39.906a6.438,6.438,0,1,0-6.437,6.438A6.445,6.445,0,0,0,69.063,39.906Zm-10.375,0a3.938,3.938,0,1,1,3.938,3.938A3.942,3.942,0,0,1,58.688,39.906Z" data-original="#000000"/></g></svg>