<svg xmlns="http://www.w3.org/2000/svg" width="821.688" height="267.599" preserveAspectRatio="xMidYMid meet" viewBox="0 0 616.266 200.699"><g fill="#0077c3"><path d="m162.296 147.136c-15.456-3.747-28.799-16.52-34.413-32.944-2.151-6.292-2.028-21.254.234-28.434 2.215-7.029 6.428-13.838 12.116-19.577 5.474-5.523 10.911-8.963 18.563-11.745 4.917-1.787 6.66-2.021 15.04-2.016 7.635.005 10.51.33 14.786 1.672 11.48 3.604 22.7 12.717 27.783 22.567 4.878 9.451 5.583 12.485 5.553 23.885-.024 9.151-.235 10.778-1.989 15.348-6.119 15.942-18.923 27.683-34.088 31.258-5.957 1.404-17.765 1.397-23.585-.014zm23.76-22.19c5.94-2.835 10.587-7.561 13.426-13.654 1.701-3.65 2.005-5.339 2.005-11.127 0-8.629-2.13-13.707-8.26-19.691-5.498-5.368-10.8-7.468-19.013-7.532-5.289-.041-6.719.26-11.165 2.355-12.217 5.756-18.588 18.471-15.509 30.95 4.291 17.387 22.619 26.286 38.515 18.7z"/><path d="m245.869 125.294v-20.744l-14.986-23.424c-8.243-12.883-15.778-24.703-16.744-26.267l-1.757-2.843 11.246.01 11.246.01 10.194 15.833c5.607 8.708 10.554 15.682 10.995 15.497.965-.406 2.251-2.274 12.848-18.648l8.219-12.701h11.375 11.375l-1.37 2.085c-.754 1.147-8.3 12.905-16.769 26.13l-15.399 24.045v20.881 20.881h-10.236-10.236v-20.744z"/><path d="m324.122 146.825c-8.408-2.271-14.175-5.706-21.04-12.536-6.3-6.267-9.703-11.658-12.51-19.817-2.124-6.174-2.124-22.441 0-28.614 2.803-8.147 6.213-13.552 12.51-19.831 9.64-9.611 20.209-13.988 33.777-13.988 8.384 0 14.719 1.549 22.153 5.417 11.104 5.777 20.406 16.98 24.039 28.951 1.989 6.556 2.173 19.57.375 26.539-3.732 14.466-17.057 28.611-31.247 33.17-7.429 2.387-20.611 2.72-28.058.709zm24.503-21.967c5.639-2.776 10.365-7.657 13.135-13.566 1.717-3.663 2.017-5.321 2.017-11.143 0-6.198-.234-7.315-2.487-11.893-4.884-9.922-13.587-15.296-24.846-15.343-5.369-.022-6.698.268-11.062 2.417-6.501 3.201-11.992 8.979-14.249 14.997-2.37 6.319-2.027 15.598.799 21.591 6.516 13.817 23.061 19.652 36.693 12.94z"/><path d="m393.728 98.978v-47.175l19.904.435c20.88.457 24.256.93 31.463 4.414 5.47 2.645 10.462 8.038 11.89 12.847 2.716 9.145.866 19.509-4.39 24.593-1.728 1.671-3.806 3.407-4.618 3.856-1.335.739-1.102 1.021 2.436 2.947 6.758 3.678 9.466 8.998 9.471 18.604.005 11.549-4.336 19.071-13.66 23.663l-5.068 2.496-23.714.247-23.714.247v-47.175zm37.197 29.622c1.483-.412 3.679-1.775 4.88-3.028 1.774-1.851 2.243-3.109 2.504-6.707.655-9.05-3.852-12.48-16.526-12.578l-7.203-.056-.209 11.563-.209 11.563 7.034-.005c3.868-.002 8.247-.341 9.731-.753zm1.64-39.137c2.77-1.432 4.383-4.749 4.383-9.013 0-7.569-3.151-9.791-14.975-10.559l-7.772-.505v10.524c0 5.788.256 10.786.569 11.107.895.917 15.482-.357 17.796-1.554z"/><path d="m503.145 147.518c-17.956-3.548-33.722-19.971-37.088-38.634-1.931-10.708-.627-19.628 4.425-30.271 2.394-5.043 4.25-7.6 8.823-12.154 15.263-15.199 36.256-18.757 55.457-9.397 13.523 6.592 23.223 19.129 26.135 33.782 1.452 7.305 1.46 11.024.038 18.542-1.785 9.443-6.233 17.587-13.599 24.901-7.019 6.969-12.735 10.321-21.367 12.528-6.164 1.577-16.752 1.903-22.824.703zm21.208-22.155c5.663-2.593 11.408-8.071 14.001-13.351 1.863-3.794 2.094-5.102 2.094-11.847s-.231-8.054-2.094-11.847c-2.305-4.694-7.814-10.311-12.394-12.638-10.696-5.433-23.879-3.139-32.136 5.592-5.765 6.096-7.15 9.737-7.183 18.893-.033 8.898 1.258 12.513 6.496 18.195 8.388 9.1 20.636 11.847 31.217 7.003z"/><path d="m84.362 109.263v-37.533h-10.995-10.995v-9.857-9.857h33.742 33.742v9.857 9.857h-10.995-10.995v37.533 37.533h-11.753-11.753v-37.533z"/><path d="m110.521 195.33c-28.018-.549-29.007-.667-41.703-4.948-33.861-11.417-60.107-44.453-63.412-79.814-1.087-11.638.07-27.008 2.724-36.184 2.706-9.354 9.923-23.695 15.885-31.564 11.889-15.692 28.924-27.746 47.507-33.616 14.106-4.456-.33-4.2 236.523-4.2 239.378 0 222.913-.321 237.708 4.634 13.769 4.612 25.347 11.532 35.718 21.349 15.546 14.716 25.356 33.186 28.824 54.273 1.74 10.581 1.075 27.529-1.466 37.337-8.496 32.794-31.741 57.807-63.642 68.482-14.039 4.698.373 4.388-213.257 4.588-107.179.101-206.812-.051-221.409-.337zm426.515-23.79c28.136-9.494 46.549-30.186 51.942-58.37 6.205-32.427-11.665-66.332-42.458-80.56-10.26-4.74-15.547-5.733-34.126-6.408-21.433-.779-366.315-.776-400.356.003-29.21.669-31.245 1.004-43.978 7.237-15.722 7.697-29.436 21.942-36.02 37.415-4.71 11.068-5.665 16.048-5.622 29.308.044 13.495 1.111 18.947 5.856 29.922 6.573 15.204 19.784 29.015 35.027 36.62 6.038 3.012 14.783 5.939 19.714 6.598 2.502.334 103.33.563 224.063.509l219.513-.099z"/></g></svg>