<svg xmlns="http://www.w3.org/2000/svg" xmlns:xlink="http://www.w3.org/1999/xlink" width="33" height="34" viewBox="0 0 33 34"><defs><clipPath id="a"><rect width="29.707" height="11.203" fill="#fff"/></clipPath></defs><g transform="translate(-0.405 0.132)"><rect width="33" height="34" rx="16.5" transform="translate(0.405 -0.132)" fill="#fff"/><g transform="translate(1.685 11.127)"><g clip-path="url(#a)"><path d="M71.075,68.967c-.871-.024-2.09.024-2.975.024v4.528h1.267V70.094s1.127-.039,1.533.01c.382.044.522.281.537.774.01.561,0,.856,0,2.641h1.267s.015-2.041,0-2.752C72.686,69.5,72.246,69,71.075,68.967Z" transform="translate(-64.806 -65.624)"/><path d="M206.074,68.8a2.288,2.288,0,1,0,2.274,2.288A2.283,2.283,0,0,0,206.074,68.8Zm0,3.483a1.2,1.2,0,1,1,1.19-1.2A1.194,1.194,0,0,1,206.074,72.283Z" transform="translate(-193.941 -65.472)"/><path d="M455.947,71.088a2.274,2.274,0,1,0-3.681,1.795,2.462,2.462,0,0,0,1.567.493,2.522,2.522,0,0,0,1.824-.784l-.513-.687a2.166,2.166,0,0,1-1.2.464,1.533,1.533,0,0,1-1.127-.334,1.061,1.061,0,0,1-.3-.6h3.4A2.076,2.076,0,0,0,455.947,71.088Zm-3.425-.416a1.168,1.168,0,0,1,2.288,0Z" transform="translate(-429.564 -65.472)"/><path d="M339.5,60.1h-1.185v1.272H337.1v1.113h1.219v1.321H339.5V62.485h1.219V61.372H339.5Z" transform="translate(-320.793 -57.193)"/></g></g></g></svg>