<svg xmlns="http://www.w3.org/2000/svg" xmlns:svgjs="http://svgjs.com/svgjs" xmlns:xlink="http://www.w3.org/1999/xlink" style="enable-background:new 0 0 512 512" width="512" height="512" x="0" y="0" version="1.1" viewBox="0 0 75 75" xml:space="preserve"><g><path xmlns="http://www.w3.org/2000/svg" fill="#037ef3" d="m54.829 62.25h-34.658a2.453 2.453 0 0 1 -2.45-2.45v-44.6a2.453 2.453 0 0 1 2.45-2.45h34.658a2.453 2.453 0 0 1 2.45 2.45v44.6a2.453 2.453 0 0 1 -2.45 2.45zm-34.658-48a.95.95 0 0 0 -.95.95v44.6a.95.95 0 0 0 .95.95h34.658a.95.95 0 0 0 .95-.95v-44.6a.95.95 0 0 0 -.95-.95z" data-original="#000000"/><path xmlns="http://www.w3.org/2000/svg" fill="#037ef3" d="m37.511 42.652a11.713 11.713 0 0 1 -1.911-.152 11.266 11.266 0 0 1 3.8-22.209 11.261 11.261 0 0 1 6.062 19.067 11.165 11.165 0 0 1 -7.951 3.294zm-.016-21.023a9.77 9.77 0 0 0 -9.619 11.42 9.766 9.766 0 1 0 11.283-11.283 10.224 10.224 0 0 0 -1.664-.137z" data-original="#000000"/><path xmlns="http://www.w3.org/2000/svg" fill="#037ef3" d="m37.505 42.647a11.115 11.115 0 0 1 -8.848-4.322.752.752 0 0 1 .154-1.068l.093-.067c.2-.145.413-.295.446-.409a2.028 2.028 0 0 0 -.029-.347 3.879 3.879 0 0 1 -.038-.479 1.433 1.433 0 0 1 1.164-1.549 1.594 1.594 0 0 1 .926.251 1.221 1.221 0 0 0 .134.07c.248.109.666-.026 1.159-.365l.12-.079a3.387 3.387 0 0 1 2.207-.775 3.382 3.382 0 0 1 1.3.54 2.716 2.716 0 0 0 .641.321 2.445 2.445 0 0 0 .661.011 5.675 5.675 0 0 1 .61-.016 5.522 5.522 0 0 1 3.647 2.1 2.816 2.816 0 0 1 .975 2.39.747.747 0 0 1 -.311.468 1.506 1.506 0 0 1 -1.529-.006 1.481 1.481 0 0 0 -.316-.113c0 .009-.1.1-.241.255-.249.285-.51.564-.77.844l-.156.175a4.222 4.222 0 0 0 -.788 1.092 2.56 2.56 0 0 0 -.13.453.75.75 0 0 1 -.61.592 2.755 2.755 0 0 1 -.471.033zm-7.188-4.675a9.618 9.618 0 0 0 6.956 3.173c.017-.046.035-.093.053-.139a5.407 5.407 0 0 1 1.053-1.52l.129-.146c.3-.326.554-.594.8-.879a2.02 2.02 0 0 1 1.216-.747 1.584 1.584 0 0 1 .453.026c-.071-.084-.144-.163-.212-.235a4.3 4.3 0 0 0 -2.617-1.642c-.165-.005-.312.005-.463.014a3.629 3.629 0 0 1 -1.129-.055 3.941 3.941 0 0 1 -1.043-.491 2.208 2.208 0 0 0 -.713-.331c-.315-.044-.759.256-1.188.538l-.11.073a2.626 2.626 0 0 1 -2.585.5c-.041-.017-.085-.038-.13-.061.006.076.015.14.023.2a2.561 2.561 0 0 1 -.006.9 1.875 1.875 0 0 1 -.487.822z" data-original="#000000"/><path xmlns="http://www.w3.org/2000/svg" fill="#037ef3" d="m28.429 33.327a2.754 2.754 0 0 1 -1.3-.453c-.132-.075-.262-.15-.391-.207a.745.745 0 0 1 -.437-.541 3.608 3.608 0 0 1 -.053-.739 11.284 11.284 0 0 1 8.009-10.771.749.749 0 0 1 .872.362 4.236 4.236 0 0 1 .139 3.684c-.1.223-.223.438-.344.652-.317.561-.5.923-.419 1.232.03.025.248.136.378.2a2.174 2.174 0 0 1 1.11.983 2.078 2.078 0 0 1 .031 1.61 1.456 1.456 0 0 1 -.836.857 2.7 2.7 0 0 1 -1.891-.2 3.919 3.919 0 0 0 -.566-.179 2.819 2.819 0 0 0 -.111.28 1.484 1.484 0 0 1 -1.183 1.171 1.736 1.736 0 0 1 -.828-.117l-.121-.038c-.561-.157-.727-.082-.728-.082a2.722 2.722 0 0 1 .028.444 1.669 1.669 0 0 1 -.691 1.674 1.342 1.342 0 0 1 -.668.178zm-.684-1.827.119.067a4.459 4.459 0 0 0 .423.221c0-.089 0-.194 0-.275a2.138 2.138 0 0 1 .337-1.45 2.038 2.038 0 0 1 2.262-.392c.062.017.13.038.2.061l.066.022c.02-.052.041-.11.057-.156a2.733 2.733 0 0 1 .344-.716c.65-.889 1.661-.513 2.266-.288a2.621 2.621 0 0 0 .807.209.619.619 0 0 0 .016-.424c-.042-.092-.3-.224-.439-.3a1.936 1.936 0 0 1 -1.139-1.129 3.089 3.089 0 0 1 .555-2.378c.1-.179.2-.357.286-.537a2.728 2.728 0 0 0 .132-1.768 9.788 9.788 0 0 0 -6.287 9.115z" data-original="#000000"/><path xmlns="http://www.w3.org/2000/svg" fill="#037ef3" d="m42.335 29.684a1.931 1.931 0 0 1 -.253-.016 1.405 1.405 0 0 1 -.982-.568 2.523 2.523 0 0 1 -.248-1.735 4.5 4.5 0 0 0 .034-.485c-.065-.011-.146-.019-.215-.026a1.426 1.426 0 0 1 -1.355-.816 1.748 1.748 0 0 1 -.077-.867 2.184 2.184 0 0 0 -.046-.576 3.348 3.348 0 0 0 -.332.082 1.567 1.567 0 0 1 -1.712-.26 1.794 1.794 0 0 1 -.208-1.863 2.884 2.884 0 0 0 .107-.486s0-.034.005-.067l-.036-.026c-.057-.043-.115-.086-.167-.132a1.245 1.245 0 0 1 -.452-.951.749.749 0 0 1 .627-.74 3.038 3.038 0 0 1 .485-.03 11.269 11.269 0 0 1 10.339 6.8.752.752 0 0 1 -.559 1.037 3.661 3.661 0 0 1 -1.253 0c-.214-.043-.415-.1-.617-.151-.47-.127-.914-.247-1.155-.109 0 .022-.043.221-.073.352a2.074 2.074 0 0 1 -.621 1.215 1.971 1.971 0 0 1 -1.236.418zm-.024-1.5a.477.477 0 0 0 .294-.069 1.765 1.765 0 0 0 .12-.4 1.852 1.852 0 0 1 .773-1.308 2.908 2.908 0 0 1 2.309-.047l.077.021a9.769 9.769 0 0 0 -7.356-4.7 1.832 1.832 0 0 1 .01.519 3.918 3.918 0 0 1 -.157.76c-.026.09-.06.213-.083.32l.151-.042a1.984 1.984 0 0 1 1.389-.026c.9.411.9 1.526.9 1.946 0 .026-.01.145-.012.17v.03l.088.009a2.592 2.592 0 0 1 .712.144c.989.391.875 1.449.814 2.018a3.213 3.213 0 0 0 -.029.656z" data-original="#000000"/><path xmlns="http://www.w3.org/2000/svg" fill="#037ef3" d="m50.657 48.026h-26.314a.75.75 0 1 1 0-1.5h26.314a.75.75 0 0 1 0 1.5z" data-original="#000000"/><path xmlns="http://www.w3.org/2000/svg" fill="#037ef3" d="m50.657 55.276h-26.314a.75.75 0 1 1 0-1.5h26.314a.75.75 0 0 1 0 1.5z" data-original="#000000"/></g></svg>